<?xml version="1.0" standalone="no"?><!DOCTYPE svg PUBLIC "-//W3C//DTD SVG 1.1//EN" "http://www.w3.org/Graphics/SVG/1.1/DTD/svg11.dtd" ><svg xmlns="http://www.w3.org/2000/svg"><metadata></metadata><defs><font id="fonteditor" horiz-adv-x="2095"><font-face font-family="SentyTEA e°NSH6OS" font-weight="400" font-stretch="normal" units-per-em="2048" panose-1="3 0 6 0 0 0 0 0 0 0" ascent="2459" descent="-1051" x-height="0" bbox="172 -692 1921 1734" underline-thickness="150" underline-position="-217" unicode-range="U+4e00-9ed1" /><missing-glyph horiz-adv-x="1384" d="M268 -115 L268 1147 L1177 1147 L1177 -115 L268 -115 ZM338 -45 L1106 -45 L1106 1077 L338 1077 L338 -45 Z" /><glyph glyph-name="uni4E00" unicode="&#x4e00;" d="M1493 646 Q1646 598 1646 559 L1646 524 Q1502 454 589 367 L538 367 L449 385 L449 419 L525 419 Q635 419 1493 646 Z" /><glyph glyph-name="uni4E0A" unicode="&#x4e0a;" d="M908 1156 L920 1156 Q966 1156 980 900 Q980 888 968 888 L980 766 L980 705 Q1106 743 1274 754 Q1295 741 1322 741 L1395 754 L1395 693 Q1340 668 1006 645 L980 619 Q980 504 945 376 L957 351 Q957 328 945 328 L957 242 L957 169 Q957 152 883 95 Q847 108 847 169 Q849 218 871 218 L859 243 L859 328 Q859 435 896 631 Q883 653 883 680 L883 741 Q883 754 896 754 L883 778 L883 1034 L871 1107 Q889 1156 908 1156 ZM1139 72 L1164 59 Q1185 73 1212 72 L1249 72 Q1315 72 1432 34 Q1444 34 1469 46 Q1564 15 1591 -26 L1591 -51 Q1591 -75 1517 -99 Q1310 -18 1164 -2 L1103 -14 L980 -14 Q936 -14 871 -26 Q859 -25 859 -13 Q676 -30 651 -38 Q639 -25 505 -14 L505 22 Q505 72 1139 72 Z" /><glyph glyph-name="uni4E0B" unicode="&#x4e0b;" d="M1680 1199 Q1745 1177 1745 1159 L1745 1115 Q1745 1080 1572 1080 L1572 1090 L1583 1111 L1561 1113 Q1381 1131 384 939 L373 939 L351 975 Q374 1001 643 1064 Q1271 1228 1680 1199 ZM1097 976 L1108 975 Q1194 953 1194 901 Q1194 561 1183 275 Q1194 36 1194 -222 Q1189 -330 1118 -323 Q1032 -278 1032 -174 L1032 -141 Q1032 53 1064 51 L1086 37 L1086 47 Q1108 827 1130 919 Q1113 920 1097 954 L1097 976 ZM1312 458 Q1468 442 1572 237 L1572 227 Q1550 164 1486 169 Q1458 173 1281 407 L1281 428 Q1281 443 1312 458 Z" /><glyph glyph-name="uni4E0E" unicode="&#x4e0e;" d="M877 1437 L926 1437 Q900 1289 900 1205 L900 1181 Q1038 1230 1182 1254 Q1230 1242 1230 1194 Q1117 1151 962 1108 Q939 1120 926 1120 Q877 1088 877 1058 Q794 732 791 571 Q816 559 828 559 Q1064 657 1292 657 L1499 596 L1559 462 Q1468 -41 1242 -342 Q1221 -342 1182 -379 L1157 -379 Q1048 -363 1048 -269 L1059 -269 Q1138 -294 1157 -294 Q1313 -159 1461 352 L1461 425 Q1461 530 1352 559 Q1067 559 828 462 L803 462 Q707 462 707 535 L707 559 Q707 656 779 1035 Q755 1046 742 1046 Q717 1046 609 1034 Q585 1046 572 1046 L572 1084 Q572 1112 803 1156 Q834 1437 877 1437 ZM1096 243 L1133 242 L1133 206 Q1015 133 681 73 L681 84 Q656 73 548 59 Q548 68 535 133 Q598 156 1096 243 Z" /><glyph glyph-name="uni4E16" unicode="&#x4e16;" d="M1039 1240 L1077 1240 Q1105 1240 1151 1054 Q1282 955 1282 942 L1282 904 Q1282 871 1114 830 L1114 606 Q1039 523 1039 513 L1058 513 Q1352 587 1394 587 L1394 755 Q1394 782 1449 811 Q1487 805 1487 774 L1487 625 L1766 699 L1766 737 Q1752 737 1655 755 L1655 793 L1673 793 Q1878 779 1878 718 L1878 699 Q1878 648 1487 550 Q1487 396 1356 47 Q1394 41 1394 10 L1394 -9 Q1382 -65 1244 -65 L1133 -65 Q1052 -46 1002 -46 Q972 -121 872 -121 Q704 -14 704 345 Q298 233 238 233 L219 271 L219 289 Q347 289 704 420 L704 718 Q704 774 965 811 L965 830 L797 830 Q700 830 685 886 Q691 923 722 923 Q728 886 760 886 L778 886 L965 904 L965 923 Q965 1240 1039 1240 ZM1133 998 L1133 942 L1170 942 Q1151 978 1151 998 L1133 998 ZM797 699 Q816 572 816 494 L816 457 Q985 494 1002 494 L1002 513 Q965 631 965 774 Q797 733 797 699 ZM834 364 Q875 -9 946 -9 Q971 -9 1039 84 L1077 65 L1114 65 Q1280 65 1375 513 L1356 513 Q834 401 834 364 Z" /><glyph glyph-name="uni4E2D" unicode="&#x4e2d;" d="M1177 1445 L1226 1445 Q1243 1256 1243 1170 L1243 1089 L1518 1089 Q1608 1089 1648 1008 Q1648 873 1372 763 L1372 748 L1389 748 Q1478 763 1518 765 Q1583 739 1583 715 L1583 699 Q1583 667 1551 667 Q1243 667 1243 618 Q1243 359 1226 -243 L1243 -357 L1194 -389 L1146 -389 Q1113 -389 1113 -357 L1113 -341 Q1113 163 1146 618 L1081 618 Q995 618 803 602 L803 634 Q803 667 1129 699 L1146 732 L1146 748 Q1146 834 1161 1024 L1146 1024 Q948 1024 592 910 Q577 667 577 553 L577 488 Q577 402 625 228 L577 196 L544 196 Q473 196 447 487 Q479 1032 544 1284 L610 1284 L610 1106 L592 943 Q913 1073 1161 1073 L1161 1089 Q1177 1266 1177 1397 L1177 1445 ZM1243 1041 L1243 748 Q1538 889 1583 975 L1583 1008 Q1583 1041 1551 1041 L1243 1041 Z" /><glyph glyph-name="uni4E86" unicode="&#x4e86;" d="M1291 1370 Q1340 1370 1400 1272 Q1393 1188 1084 882 L1084 858 Q1084 832 1230 796 Q1315 705 1315 552 L1315 431 Q1315 -90 1084 -312 L1071 -312 Q773 -304 741 -178 L767 -166 Q901 -227 998 -227 Q1186 -227 1230 371 L1230 431 Q1230 443 1242 443 Q1242 725 1108 748 Q974 772 974 821 L974 869 Q1054 982 1291 1211 Q1291 1239 1302 1261 L1266 1284 Q834 1247 718 1199 L693 1235 L693 1247 Q721 1324 1291 1370 Z" /><glyph glyph-name="uni4E9B" unicode="&#x4e9b;" d="M651 1344 L688 1344 Q711 1340 711 1320 Q749 815 749 711 L737 711 L749 686 L749 649 Q749 606 737 540 L749 516 Q729 418 700 418 Q676 430 663 430 L663 564 Q663 626 651 747 L663 747 Q651 771 651 784 Q651 935 627 1331 L651 1344 ZM1309 1198 Q1357 1179 1357 1162 Q1357 1137 1333 1137 L1345 1076 L1345 869 L1357 869 L1613 966 L1625 942 L1625 917 Q1625 858 1333 785 L1333 602 Q1333 395 1443 394 Q1501 394 1589 455 L1638 455 L1650 407 Q1598 358 1541 332 Q1541 310 1431 284 Q1260 331 1260 430 Q1245 431 1236 481 Q1236 492 1247 491 L1236 553 L1236 736 Q1193 735 1078 688 L1005 674 L980 711 L980 723 Q980 755 1236 834 L1247 857 L1247 966 Q1247 979 1260 979 Q1247 1002 1247 1015 Q1247 1198 1309 1198 ZM1102 1040 Q1125 1027 1138 1027 L1138 991 Q1138 954 870 881 Q870 864 833 845 L797 845 Q773 845 773 869 L773 905 Q797 972 1102 1040 ZM492 931 L505 931 Q525 931 554 772 Q542 601 542 480 L542 382 Q542 319 505 309 Q444 310 444 492 L444 517 Q444 543 456 564 Q456 576 444 578 L456 662 L456 795 Q456 824 444 846 Q465 931 492 931 ZM907 430 L931 430 Q956 427 956 407 L749 223 Q605 116 468 102 Q444 103 444 127 L444 164 Q444 187 578 223 Q595 227 907 430 ZM1272 187 Q1431 178 1431 139 L1431 125 Q1431 108 1394 90 L1284 90 Q1257 90 1236 103 Q1152 77 847 29 Q773 45 773 77 Q794 139 833 139 Q847 139 870 125 Q1190 187 1272 187 ZM1515 -130 Q1566 -154 1589 -154 L1589 -178 Q1589 -243 797 -288 L773 -288 Q742 -288 737 -240 Q749 -216 749 -202 Q838 -202 1016 -178 L1016 -190 Q1133 -166 1431 -142 L1455 -154 L1515 -130 Z" /><glyph glyph-name="uni4EBA" unicode="&#x4eba;" d="M1183 1284 Q1231 1265 1231 1247 L1231 1234 Q1134 1176 1134 1137 Q1067 1076 828 589 Q812 587 670 284 Q561 51 561 -81 Q609 -88 609 -118 Q609 -179 549 -228 L463 -227 L451 -155 Q451 122 1109 1247 L1183 1284 ZM963 516 L976 516 Q1086 516 1499 29 Q1645 -101 1645 -130 L1645 -179 Q1645 -203 1621 -203 L1548 -203 Q1546 -156 987 430 Q938 431 938 469 L938 492 Q942 516 963 516 Z" /><glyph glyph-name="uni4ECA" unicode="&#x4eca;" d="M1172 1470 L1183 1447 Q1009 1239 935 1098 Q1179 1098 1656 469 Q1824 227 1824 187 Q1824 169 1780 142 L1757 142 Q1738 143 1600 344 L1611 366 Q1379 701 1183 895 Q997 1045 901 1064 Q535 493 361 152 Q349 152 327 142 Q297 142 271 198 Q381 499 1048 1379 Q1138 1470 1172 1470 ZM822 648 L890 648 Q1008 648 1037 479 L1037 422 Q1037 405 992 377 Q957 385 913 535 Q822 603 822 648 ZM1273 310 L1296 276 L1296 243 Q1296 212 1003 152 L1071 7 Q1071 -62 1082 -62 L1071 -140 L1071 -309 Q1071 -398 979 -398 Q923 -384 923 -320 L923 -297 Q923 -231 970 142 Q805 96 733 96 Q665 108 665 130 Q680 146 957 231 Q1144 310 1273 310 Z" /><glyph glyph-name="uni4ED6" unicode="&#x4ed6;" d="M767 1278 L779 1278 Q803 1274 803 1253 Q681 1034 352 583 Q352 572 292 437 L304 438 Q304 453 364 497 L377 497 Q340 420 267 363 L218 363 L206 411 Q206 561 767 1278 ZM1499 1253 L1523 1253 Q1547 1250 1547 1229 L1547 1132 Q1547 888 1523 814 L1535 814 Q1665 876 1767 876 L1803 876 Q1829 871 1829 851 L1829 814 Q1829 680 1621 229 L1560 217 Q1486 261 1486 363 Q1512 363 1535 266 L1560 266 Q1600 266 1779 814 L1779 838 Q1523 784 1523 741 Q1472 241 1414 241 L1402 241 Q1349 241 1279 509 Q1298 506 1376 290 L1402 290 L1462 728 L1450 728 Q1196 616 1194 595 L1194 -27 Q1194 -88 1596 -125 Q1657 -117 1889 -15 L1889 -27 Q1770 -198 1633 -197 L1512 -198 Q1108 -161 1108 -15 L1108 46 Q1108 233 1120 558 Q1133 558 1133 570 L1120 570 Q1012 509 950 509 L950 546 Q1133 609 1133 656 Q1133 741 1145 985 L1170 997 L1182 997 Q1215 997 1230 851 L1206 851 L1206 900 L1194 900 L1194 668 L1206 668 Q1243 668 1243 705 Q1255 705 1255 693 Q1474 784 1474 815 Q1499 1196 1499 1253 ZM645 826 L670 826 Q693 823 693 802 L693 728 Q693 503 670 -125 L681 -174 Q664 -222 645 -222 L633 -222 Q615 -222 597 -186 Q597 -55 645 790 L645 826 Z" /><glyph glyph-name="uni4EEC" unicode="&#x4eec;" d="M852 1467 L865 1467 Q889 1463 889 1442 Q653 1139 572 943 Q450 824 450 686 L341 394 Q341 345 316 345 L316 272 Q316 257 414 223 L414 211 Q381 117 341 101 L304 102 Q218 143 218 211 Q280 631 438 931 Q610 1208 852 1467 ZM1743 1260 Q1865 1260 1865 869 L1865 857 Q1865 829 1877 809 Q1865 787 1865 759 Q1865 735 1877 735 L1865 649 L1865 540 Q1865 -134 1755 -228 Q1727 -228 1705 -240 Q1584 -231 1584 -216 L1560 -228 L1547 -228 Q1339 -189 1292 -167 L1292 -155 Q1296 -130 1316 -130 Q1360 -130 1426 -143 Q1438 -143 1438 -130 L1498 -143 L1596 -143 Q1743 -143 1743 -57 Q1780 320 1780 516 L1780 674 Q1780 776 1755 1137 L1718 1162 L1524 1101 L1486 1101 Q1462 1101 1462 1125 L1462 1151 Q1726 1260 1743 1260 ZM1060 991 Q1230 967 1230 857 L1182 821 Q1117 894 1035 931 L1035 979 Q1060 979 1060 991 ZM645 686 L706 686 L731 674 Q706 583 682 -227 L682 -264 L693 -386 L658 -411 Q560 -366 560 -265 L560 -240 Q560 -71 609 77 Q633 547 633 649 Q645 673 645 686 ZM1023 638 L1035 638 Q1060 634 1060 614 Q1060 570 1035 64 Q1060 61 1060 41 Q1060 -228 987 -228 L975 -228 Q942 -223 926 -167 L937 -106 L926 -81 L987 528 L975 552 Q996 638 1023 638 Z" /><glyph glyph-name="uni4F1A" unicode="&#x4f1a;" d="M1072 1357 L1088 1357 Q1120 1352 1120 1324 Q904 1124 828 887 Q731 750 536 187 Q519 187 471 -71 L486 -73 Q492 -41 519 -41 L536 -41 Q493 -284 438 -284 L406 -284 Q373 -284 373 -252 L373 -202 Q373 63 715 837 Q944 1301 1072 1357 ZM1055 935 Q1055 887 1120 887 L1105 855 L1138 869 Q1331 853 1722 480 L1722 431 Q1722 407 1657 382 Q1634 382 1510 545 Q1055 851 1055 887 Q1023 887 1023 919 L1055 935 ZM1364 626 L1381 593 Q1381 552 942 513 Q877 537 877 561 Q877 585 942 609 Q958 609 958 593 Q1135 626 1364 626 ZM1138 350 L1283 350 Q1316 345 1316 319 L1316 301 Q1088 301 1088 187 L975 -154 L975 -169 Q979 -202 1007 -202 Q1316 -97 1316 -40 Q1283 -41 1283 -8 L1283 24 Q1288 57 1316 58 L1349 57 Q1397 57 1462 -187 L1462 -267 Q1462 -300 1429 -300 L1381 -300 Q1381 -252 1349 -137 Q1306 -137 1138 -235 Q1037 -284 1007 -284 L990 -283 Q893 -283 893 -186 Q893 -117 1007 253 L990 253 Q962 235 926 235 L909 235 Q887 235 860 285 Q995 350 1138 350 Z" /><glyph glyph-name="uni4F4D" unicode="&#x4f4d;" d="M994 1315 L1018 1316 Q1035 1316 1054 1278 Q882 1070 579 474 L445 206 L445 182 L493 218 L518 218 Q493 72 457 72 L445 72 Q422 84 408 84 L395 59 L395 47 L457 47 Q398 -135 347 -135 L298 -135 Q298 -108 262 -63 Q262 68 761 986 Q855 1109 920 1242 Q974 1316 994 1315 ZM1212 1266 L1237 1266 Q1318 1266 1456 1071 L1456 1023 Q1456 994 1395 986 Q1251 1173 1188 1230 L1188 1242 Q1192 1266 1212 1266 ZM1579 925 L1627 925 Q1645 925 1663 889 L1663 851 Q1663 827 1553 803 Q1514 827 1493 828 Q1237 767 1018 682 Q994 721 994 741 Q994 777 1469 913 Q1514 925 1579 925 ZM1322 755 L1335 730 L1297 657 Q1286 339 1286 156 L1286 11 L1297 -111 L1237 -111 Q1204 -111 1188 47 Q1209 729 1262 729 L1322 755 ZM774 693 L798 694 Q822 693 835 608 L822 548 Q822 535 835 510 Q822 444 822 400 Q822 364 835 364 L822 279 L822 -135 L835 -221 L787 -257 L774 -257 Q757 -257 725 -196 Q737 163 737 340 L749 364 Q737 385 737 413 L737 438 L749 510 Q737 535 737 548 Q747 693 774 693 ZM1566 571 L1591 571 L1627 548 Q1627 327 1517 -2 Q1508 -2 1456 -99 L1456 -123 L1639 -123 Q1802 -123 1834 -184 L1834 -221 L1773 -233 L1773 -221 Q1761 -221 1761 -233 L1676 -221 L1591 -221 Q1557 -221 1262 -245 L1225 -245 Q1159 -244 1127 -184 Q1127 -161 1225 -147 L1249 -161 Q1374 -161 1432 35 Q1508 200 1541 560 L1566 571 Z" /><glyph glyph-name="uni4F60" unicode="&#x4f60;" d="M894 1444 L909 1412 Q753 1029 443 541 L443 526 L502 580 L502 550 Q414 367 322 312 L292 315 Q270 318 247 365 L247 395 Q277 571 849 1433 Q865 1432 894 1444 ZM1225 1396 Q1255 1393 1255 1349 Q1180 1184 1150 1073 Q1216 1125 1752 1163 Q1812 1134 1812 1111 L1812 1052 Q1812 911 1421 624 L1421 609 Q1421 442 1436 -206 L1391 -231 L1346 -227 Q1255 -174 1255 113 L1285 111 L1301 33 L1316 33 L1316 168 Q1316 450 1331 994 L1376 1020 Q1421 1015 1421 849 L1421 729 Q1592 882 1722 1060 L1722 1076 Q1195 1053 1119 985 Q1060 856 984 548 L939 552 Q916 553 894 616 Q1015 1178 1225 1396 ZM665 745 L682 741 Q658 392 680 -184 L678 -214 Q677 -235 631 -252 L586 -244 Q551 -239 548 -132 Q607 755 665 745 ZM1150 561 L1180 558 Q1211 550 1211 525 L1211 509 Q1150 441 1074 26 L1119 52 L1135 51 L1135 35 Q1061 -123 1030 -120 L984 -115 Q963 -113 939 -66 L939 -51 Q939 340 1150 561 ZM1519 527 L1574 521 Q1764 503 1849 -15 L1849 -85 Q1849 -106 1795 -134 L1752 -130 Q1731 -128 1698 -69 L1698 -14 Q1698 0 1712 -2 Q1651 473 1519 485 L1519 527 Z" /><glyph glyph-name="uni50CF" unicode="&#x50cf;" d="M1355 1565 L1373 1532 L1255 1332 L1271 1332 Q1478 1416 1588 1416 L1622 1366 L1622 1332 Q1622 1266 1522 1166 L1522 1150 L1606 1166 L1755 1166 Q1788 1161 1788 1133 L1788 1082 Q1724 833 1588 833 L1572 833 L1572 849 Q1659 970 1721 1099 Q1689 1115 1672 1115 Q1422 1115 1422 1066 Q1439 976 1439 916 Q1500 949 1572 949 L1588 916 Q1422 871 1422 750 L1389 733 Q1389 766 1355 766 L1238 633 L1238 616 L1271 616 Q1310 616 1339 633 Q1522 633 1539 332 L1539 266 Q1905 -48 1905 -166 L1872 -183 L1856 -183 Q1747 -15 1555 150 L1539 150 L1539 67 Q1486 -416 1255 -416 Q1172 -394 1172 -300 L1172 -166 L1189 -166 L1271 -317 L1306 -317 Q1472 -145 1472 166 L1472 316 Q1397 262 1038 -151 L1022 -151 Q990 -151 990 -117 Q990 -70 1472 399 L1472 416 Q1449 583 1322 583 L1205 583 Q1188 583 823 150 L789 150 Q757 150 757 200 Q878 388 1122 633 L1105 799 L1105 999 Q1116 1099 1156 1099 Q1172 1099 1172 1082 Q1379 1121 1539 1299 Q1539 1317 1555 1349 Q1539 1349 1539 1366 Q1172 1283 1172 1217 Q994 916 972 916 L956 916 Q923 916 923 966 Q982 1180 1355 1565 ZM939 1532 L990 1532 L990 1516 Q356 646 356 532 L273 450 L223 450 Q189 450 189 483 L189 499 Q400 922 939 1532 ZM1172 1015 L1172 849 L1189 849 Q1222 849 1355 882 L1355 966 L1373 1049 L1289 1032 Q1289 1066 1238 1066 Q1172 1041 1172 1015 ZM622 916 L639 916 Q694 916 706 683 Q690 108 690 -217 L655 -233 L639 -233 Q613 -233 572 -166 L572 -33 Q622 791 622 916 ZM1189 782 L1189 716 Q1211 716 1271 799 L1238 799 Q1207 782 1189 782 ZM1772 616 L1805 616 Q1821 529 1821 517 Q1743 366 1606 366 L1606 383 Q1699 494 1772 616 ZM1339 499 Q1373 495 1373 466 Q1311 433 1022 99 Q990 99 990 133 L990 166 Q1183 410 1339 499 Z" /><glyph glyph-name="uni513F" unicode="&#x513f;" d="M1058 1125 L1108 1125 Q1132 1122 1132 1101 Q1095 969 1058 626 L1047 626 Q1047 614 1058 614 L1047 552 L1047 468 Q1047 41 1216 41 L1216 29 Q1383 77 1436 125 L1473 125 Q1498 122 1498 101 L1498 77 Q1489 56 1216 -68 Q1003 -68 961 333 L961 345 Q961 641 1058 1125 ZM779 1066 L779 1054 L681 394 Q693 373 693 345 L693 321 Q693 309 681 309 L693 284 L693 249 Q693 221 681 199 Q696 105 729 65 L729 41 Q729 22 681 4 Q613 4 596 199 Q596 579 729 1065 L779 1066 Z" /><glyph glyph-name="uni5149" unicode="&#x5149;" d="M913 1437 L925 1437 Q949 1437 1023 974 Q1010 851 987 851 L961 851 Q937 853 913 998 L925 1023 L877 1242 L877 1400 Q877 1418 913 1437 ZM1254 1255 L1303 1254 L1316 1195 L1316 1048 Q1292 875 1133 741 L1157 743 Q1272 816 1388 815 L1413 779 L1413 755 L1218 669 Q790 240 658 -197 L658 -221 L681 -257 L681 -271 Q658 -381 620 -379 L583 -381 Q565 -381 548 -343 L548 -283 Q597 73 1035 608 L1035 620 L1023 620 Q944 596 913 596 L913 608 Q766 535 376 498 L364 523 L364 571 L987 706 Q1053 706 1059 779 Q1243 905 1243 1230 Q1254 1230 1254 1255 ZM620 1181 L645 1181 Q711 1132 877 779 Q858 730 839 729 L803 729 Q767 780 767 827 Q689 893 596 1156 L596 1168 L620 1181 ZM1193 425 L1206 425 L1218 376 Q1193 81 1193 -38 L1193 -87 Q1193 -197 1388 -197 Q1432 -197 1498 -185 L1522 -197 Q1598 -197 1670 -135 L1718 -135 L1730 -185 Q1730 -295 1437 -295 L1291 -295 Q1160 -295 1096 -159 Q1096 76 1157 402 L1193 425 Z" /><glyph glyph-name="uni5168" unicode="&#x5168;" d="M1019 1445 L1067 1445 L1067 1397 Q986 1397 629 715 Q422 279 402 -81 Q417 -169 417 -228 L369 -261 L352 -260 Q329 -261 304 -211 L304 -196 Q304 431 953 1397 L1019 1445 ZM921 893 Q1790 554 1790 435 L1790 418 Q1773 418 1742 403 Q1270 695 938 812 Q938 845 905 845 Q921 877 921 893 ZM1116 584 Q1197 565 1197 537 L1197 521 L1116 504 L1116 520 Q1063 487 726 438 L726 471 Q726 516 1116 584 ZM986 439 L1019 438 L1019 293 L1036 211 L1262 260 L1279 227 L1279 195 Q1056 147 1036 113 L1051 81 Q1051 22 1019 -261 L1051 -261 Q1129 -261 1214 -244 Q1351 -244 1408 -341 Q1408 -363 1360 -389 Q1327 -389 1182 -324 L1100 -341 L1036 -341 Q998 -341 971 -324 Q944 -341 711 -357 L693 -324 L693 -293 L938 -261 Q953 -98 953 -16 L953 65 L938 98 Q787 15 759 15 L742 48 L742 65 Q953 157 953 195 L953 406 Q959 438 986 439 Z" /><glyph glyph-name="uni518D" unicode="&#x518d;" d="M1493 1351 L1524 1305 Q1524 1230 1103 1210 Q1103 1195 1087 1195 Q1133 1117 1133 1070 L1133 945 Q1315 1008 1415 1008 L1430 1008 Q1509 983 1509 804 L1509 367 L1711 367 Q1734 367 1758 320 L1758 289 Q1758 179 1648 179 Q1536 227 1509 227 L1509 211 Q1509 -305 1368 -305 L1336 -305 Q1243 -305 993 -164 L993 -132 L1009 -132 Q1148 -195 1227 -195 L1322 -195 Q1392 -195 1399 211 Q1206 196 852 133 L852 -164 Q852 -186 806 -210 L775 -210 Q729 -195 729 -117 L729 70 L743 102 L729 102 Q471 40 400 40 L368 40 Q337 40 337 70 L337 86 Q369 155 743 242 L743 945 Q743 967 790 992 L806 992 Q838 992 838 836 Q1025 913 1025 945 Q1040 1047 1040 1147 L1040 1195 Q872 1164 680 1164 L666 1164 Q634 1164 634 1195 Q634 1273 1493 1351 ZM1133 836 L1133 633 Q1151 633 1399 695 L1399 882 L1384 913 Q1221 851 1133 836 ZM838 554 Q977 601 1025 601 L1025 804 L1009 804 Q838 804 838 726 L838 554 ZM1133 539 L1133 337 L1150 337 Q1173 337 1399 352 L1399 586 L1384 586 Q1151 539 1133 539 ZM838 476 L838 274 Q995 305 1025 305 L1025 508 Q984 508 838 476 Z" /><glyph glyph-name="uni5217" unicode="&#x5217;" d="M941 1320 Q999 1299 999 1277 L999 1249 Q999 1210 655 1150 Q509 1092 443 1092 Q413 1092 413 1120 Q564 1249 941 1320 ZM1639 1263 L1696 1263 Q1750 1263 1795 -19 L1795 -176 Q1795 -253 1725 -289 L1710 -289 Q1637 -289 1624 -246 L1624 -232 Q1682 -232 1682 -190 L1682 -47 Q1682 32 1639 1164 L1624 1191 Q1639 1216 1639 1263 ZM770 1120 L784 1092 Q784 1035 685 793 Q891 892 1012 892 L1040 821 Q1013 614 628 -133 L571 -176 L515 -176 Q464 -176 443 -19 L443 -4 L471 -4 L485 -62 L499 -62 Q606 59 713 351 Q638 408 528 408 Q532 437 556 437 L642 437 Q743 408 757 408 Q941 737 941 821 Q585 759 585 608 Q538 551 372 223 L343 223 Q308 223 300 279 Q348 425 655 935 Q742 1120 770 1120 ZM1268 908 L1298 908 L1382 807 Q1397 345 1411 180 Q1390 123 1368 123 L1325 123 Q1283 139 1283 209 L1283 836 L1268 908 Z" /><glyph glyph-name="uni521D" unicode="&#x521d;" d="M768 1441 Q880 1405 926 1356 L926 1308 L889 1308 Q719 1353 719 1405 L719 1429 Q746 1429 768 1441 ZM877 1100 L913 1100 Q975 1071 975 1040 Q975 975 755 552 Q755 485 768 419 Q755 140 755 -93 L755 -337 L695 -337 Q695 -318 670 -288 L670 -240 Q670 -46 682 395 L658 394 L438 -8 Q438 -29 378 -154 Q402 -166 414 -166 Q393 -240 329 -240 L293 -190 L293 -166 Q293 -102 572 394 Q775 746 889 1014 L852 1014 Q491 881 390 881 L378 905 L378 917 Q378 946 877 1100 ZM1657 917 Q1753 917 1802 784 L1802 468 Q1802 455 1790 455 Q1790 442 1802 442 Q1754 13 1668 -311 L1608 -312 Q1562 -257 1499 77 L1499 114 Q1502 139 1522 139 Q1581 58 1608 -104 L1620 -104 Q1692 -67 1730 712 Q1730 834 1644 833 L1571 846 L1499 795 Q1499 784 1473 784 L1473 759 Q1340 200 1292 -323 Q1303 -345 1303 -373 L1279 -385 L1242 -385 L1194 -349 Q1315 495 1401 784 L1389 784 Q1265 757 1146 711 L1036 699 L1023 723 L1023 759 Q1532 917 1657 917 ZM1036 649 Q1059 638 1072 638 L1072 626 Q943 442 889 442 L889 419 Q1031 235 1120 235 L1120 211 Q1108 175 1048 175 Q971 175 803 394 L803 442 Q880 495 998 638 Q1022 649 1036 649 Z" /><glyph glyph-name="uni5230" unicode="&#x5230;" d="M1608 1318 L1621 1319 L1665 1297 Q1669 1245 1699 1031 Q1804 -345 1692 -349 L1636 -354 Q1573 -321 1452 -117 L1465 -116 Q1590 -203 1611 -202 Q1624 -6 1580 1305 L1608 1318 ZM1020 1265 Q1075 1245 1075 1225 L1075 1196 Q1075 1169 777 1083 Q470 640 470 568 L485 568 Q550 568 888 777 Q867 777 792 874 L792 901 Q792 930 832 930 Q1005 888 1194 665 L1194 596 Q1194 564 1125 554 Q1104 554 930 721 Q930 677 861 637 L888 429 L1056 443 L1069 415 L1069 401 Q1068 385 875 275 L875 123 L861 25 L875 25 Q1040 81 1083 81 L1111 81 Q1130 81 1152 39 Q1152 -29 568 -156 L470 -156 Q444 -156 444 -128 L444 -114 Q444 -96 763 -3 L749 66 L749 164 L763 262 Q677 192 596 192 L583 192 Q507 192 470 262 L470 275 Q470 300 777 401 Q777 490 792 581 L777 581 Q568 456 485 456 L401 456 Q379 456 346 512 L346 539 Q346 673 679 1069 L679 1083 L485 1083 Q378 1083 360 1138 Q365 1166 387 1166 L470 1166 Q606 1166 1020 1265 ZM1347 818 L1361 818 Q1431 803 1431 346 L1390 317 L1376 317 Q1306 317 1306 721 L1306 734 Q1315 818 1347 818 Z" /><glyph glyph-name="uni524D" unicode="&#x524d;" d="M1194 1502 L1208 1502 Q1249 1502 1276 1376 Q1276 1261 970 1099 L985 1099 Q1438 1181 1692 1181 L1720 1141 L1720 1112 Q1720 1085 1179 1030 L429 877 Q374 898 374 919 Q374 986 888 1085 Q818 1197 818 1432 L847 1445 L860 1445 Q888 1445 944 1210 L970 1224 L985 1224 L985 1155 Q1194 1327 1194 1405 Q1194 1441 1165 1487 L1194 1502 ZM1540 864 Q1649 864 1679 -302 Q1679 -359 1609 -386 Q1529 -354 1456 -206 Q1461 -178 1485 -178 Q1491 -207 1554 -233 Q1526 469 1526 696 Q1511 696 1485 711 Q1498 864 1540 864 ZM790 849 L804 849 Q833 845 833 821 L833 683 L847 683 Q969 751 1041 751 L1068 751 Q1194 751 1194 -67 L1194 -331 Q1194 -350 1151 -372 L1137 -372 Q1045 -372 915 -122 L902 -122 L902 -81 L915 -81 Q1054 -233 1068 -233 L1082 -233 L1082 336 L1068 336 Q1015 294 804 253 L804 99 Q948 113 970 128 Q1054 109 1054 86 Q988 36 804 2 L804 -151 Q804 -240 818 -428 L777 -455 Q707 -455 707 -288 L707 -38 Q707 -26 680 73 Q707 73 707 99 L707 210 L693 210 L638 169 L624 197 L624 210 Q624 251 707 350 Q722 473 722 503 L707 571 Q758 849 790 849 ZM818 600 L818 363 L1013 419 Q1036 405 1068 405 L1068 474 Q1068 564 1041 669 Q980 669 818 600 ZM1388 530 L1415 530 Q1443 526 1443 503 L1443 350 Q1443 303 1456 279 L1443 197 L1443 113 Q1443 94 1401 73 L1374 73 Q1345 73 1345 99 L1345 169 Q1345 530 1388 530 Z" /><glyph glyph-name="uni52C7" unicode="&#x52c7;" d="M1199 1679 Q1282 1639 1297 1594 Q1297 1555 1114 1387 Q1212 1352 1212 1277 L1175 1253 L1114 1252 Q1114 1284 1066 1301 Q1025 1290 809 1265 L798 1289 L798 1338 Q798 1362 968 1398 Q1187 1561 1187 1569 L1187 1594 Q1083 1594 785 1508 L725 1508 L652 1557 L652 1569 Q652 1594 956 1630 Q970 1661 1199 1679 ZM700 1301 L737 1301 L749 1241 Q713 1103 713 1058 L725 1058 Q914 1058 1297 1143 L1467 1143 Q1505 1130 1552 1058 L1552 1033 Q1552 853 1333 548 L1199 425 L1212 425 Q1212 437 1224 437 L1224 388 Q1187 334 1187 303 L1199 303 Q1221 315 1247 315 L1272 315 Q1516 315 1516 132 L1516 96 Q1516 -224 1345 -488 Q1333 -487 1333 -525 L1285 -526 Q1212 -500 1212 -342 L1212 -269 Q1215 -244 1236 -244 Q1266 -244 1297 -379 Q1419 -192 1419 84 Q1419 96 1431 96 Q1431 230 1260 230 L1247 230 Q1134 230 1102 -37 L968 -610 L907 -623 L895 -623 L871 -610 Q1040 59 1040 169 L1017 156 L956 156 Q953 120 737 72 L713 72 Q693 -75 652 -75 Q542 -46 542 254 L542 351 Q542 734 578 826 Q578 838 566 838 Q642 1301 700 1301 ZM1066 985 L1066 838 L1138 838 Q1212 831 1212 802 L1212 778 Q1066 767 1066 656 L1066 645 Q1158 675 1199 741 L1224 741 Q1247 712 1247 693 Q1247 662 1078 560 Q1069 486 1054 486 Q1066 462 1066 449 Q1066 315 992 290 L956 340 L956 437 Q956 449 968 449 Q956 473 956 486 Q859 437 821 437 L785 437 Q761 438 761 462 L761 486 Q761 516 968 583 L956 668 L956 705 L944 705 Q917 705 785 656 L749 656 L749 705 Q749 750 968 814 L968 960 L956 985 Q842 970 809 948 Q726 961 700 972 Q675 875 663 875 Q663 864 675 864 L640 521 Q640 509 652 509 L640 425 L640 315 Q640 169 675 169 L761 157 Q786 186 1102 290 Q1102 405 1187 425 L1187 437 Q1138 437 1138 473 L1138 498 Q1337 630 1406 864 Q1455 917 1455 972 L1455 1045 Q1431 1045 1431 1070 Q1066 1030 1066 985 Z" /><glyph glyph-name="uni53C8" unicode="&#x53c8;" d="M1374 1170 L1387 1168 Q1440 1142 1440 1070 L1440 1057 Q1360 746 1174 259 Q1665 -173 1665 -296 L1665 -337 Q1665 -356 1613 -384 L1560 -377 Q1516 -357 1427 -86 Q1260 108 1133 197 Q969 -159 735 -136 Q429 -55 429 281 L429 333 Q429 507 669 483 L708 479 Q838 465 1067 337 Q1161 592 1294 1045 L1280 1046 Q851 957 789 963 L748 967 Q728 969 708 1010 L708 1036 Q713 1064 735 1062 Q739 1034 761 1032 Q1253 1181 1374 1170 ZM469 342 L469 249 Q531 -49 682 -64 L735 -69 Q904 -86 1041 272 Q858 410 615 435 Q469 449 469 342 Z" /><glyph glyph-name="uni53D1" unicode="&#x53d1;" d="M1395 1590 Q1419 1588 1614 1406 L1626 1406 L1626 1381 Q1626 1344 1578 1344 Q1499 1368 1334 1540 Q1346 1588 1395 1590 ZM1115 1418 Q1139 1415 1139 1393 L1139 1370 Q1108 1370 993 1150 Q920 950 920 931 L920 919 L1285 1089 Q1285 1110 1346 1113 L1371 1113 L1371 1089 Q1342 1089 1309 1041 L1151 955 Q1151 937 1089 917 Q1089 893 896 821 Q750 567 750 479 Q1181 711 1358 711 Q1419 663 1419 614 L1419 552 Q1419 470 1249 41 Q1334 -93 1516 -301 Q1525 -301 1566 -374 L1566 -386 Q1545 -385 1504 -423 Q1359 -289 1213 -57 L1199 -57 Q1187 -57 1041 -276 Q997 -326 858 -324 L810 -253 L810 -216 Q823 -214 846 -203 L883 -265 L931 -265 Q1086 -141 1139 15 L1139 41 Q983 235 883 235 Q862 222 834 222 L834 248 Q834 265 871 284 L896 284 Q1054 284 1187 113 Q1281 242 1358 540 L1358 614 Q1358 637 1334 638 L1309 637 Q1103 582 688 370 Q542 -170 542 -447 L554 -520 L530 -532 L469 -520 L469 -362 Q469 -48 750 735 L750 747 Q724 747 627 723 Q545 723 481 795 Q481 865 627 1234 Q652 1332 676 1332 L700 1333 Q724 1329 724 1308 Q579 879 579 833 L591 807 Q785 807 846 943 Q951 1256 1115 1418 ZM1089 150 L1089 138 Q1139 89 1139 64 L1164 64 Q1106 150 1089 150 Z" /><glyph glyph-name="uni5408" unicode="&#x5408;" d="M1161 1414 L1173 1415 Q1198 1414 1198 1392 Q1058 1301 797 924 Q496 472 420 244 Q369 152 357 151 L318 147 Q300 145 281 194 Q376 553 1010 1322 Q1121 1409 1161 1414 ZM1110 1169 L1149 1173 Q1399 1140 1713 689 Q1814 499 1814 460 Q1796 408 1777 407 L1726 402 Q1692 398 1625 617 Q1450 942 1085 1154 L1110 1169 ZM821 813 L1261 857 Q1280 859 1300 823 L1300 811 Q1300 793 1261 769 L1136 757 Q797 723 797 772 L797 785 Q800 812 821 813 ZM784 534 Q821 537 821 361 Q821 394 1388 480 L1400 482 Q1449 465 1449 398 L1449 373 Q1425 227 1349 24 Q1406 4 1413 -20 L1413 -58 Q1413 -117 948 -180 Q922 -169 909 -170 L909 -309 Q909 -334 885 -337 L872 -338 Q787 -346 733 315 Q746 529 784 534 ZM846 288 Q846 275 834 274 Q846 88 885 -99 Q1224 -1 1224 24 Q1325 323 1325 349 L1325 361 Q962 299 846 288 Z" /><glyph glyph-name="uni540E" unicode="&#x540e;" d="M1249 1535 Q1298 1511 1323 1510 L1323 1473 Q1323 1440 1164 1400 Q1018 1274 798 681 Q664 235 566 -465 Q614 -465 614 -526 L614 -539 Q583 -672 542 -671 L517 -672 Q469 -653 469 -587 Q602 316 773 827 Q887 1111 1018 1352 L1006 1352 Q799 1340 750 1315 L724 1327 L579 1302 L566 1327 L566 1340 Q566 1366 1029 1437 Q1131 1478 1187 1522 Q1229 1522 1249 1535 ZM1285 851 L1383 851 L1444 839 L1444 790 L1383 778 L1358 790 Q1191 705 1029 705 Q962 717 932 717 L932 755 Q944 790 1006 790 Q1018 790 1041 778 Q1243 815 1285 851 ZM993 413 L993 400 Q993 353 1018 266 L1433 363 L1433 352 L1456 363 L1505 363 Q1614 363 1626 242 Q1487 11 1407 11 Q1407 -29 1542 -38 L1542 -64 Q1542 -99 1419 -112 L1213 -87 L1213 -38 Q1509 138 1542 254 Q1493 278 1493 290 Q1159 244 1029 156 Q1029 125 1115 -271 Q1115 -295 1091 -295 L1066 -295 Q1028 -295 968 22 L981 22 Q932 178 932 352 L932 376 Q932 404 993 413 Z" /><glyph glyph-name="uni5417" unicode="&#x5417;" d="M1267 1381 L1414 1382 Q1510 1348 1510 1273 Q1510 1131 1353 602 L1364 602 Q1767 602 1767 261 Q1767 26 1548 -288 Q1548 -300 1499 -323 L1438 -323 Q1376 -323 1243 -178 Q1243 -147 1195 -92 L1195 -32 L1206 -32 Q1385 -212 1438 -227 Q1524 -227 1669 200 Q1669 427 1510 493 L1402 468 Q1353 477 1353 492 Q1228 443 1133 443 Q1121 443 1073 504 Q1157 1059 1206 1211 Q1219 1211 1243 1222 Q1298 1199 1304 1174 Q1231 991 1231 869 Q1267 869 1267 724 Q1267 711 1255 712 Q1267 688 1267 675 Q1306 675 1414 1187 L1414 1235 L1402 1296 L1353 1296 Q1274 1296 1109 1284 L1109 1332 Q1222 1381 1267 1381 ZM391 1260 Q391 1241 439 1222 Q439 1210 427 1186 Q439 1054 439 955 L439 845 L573 845 Q601 845 622 858 Q634 857 634 845 Q773 869 901 869 L976 784 L976 748 Q914 609 720 443 Q720 419 841 394 L841 345 Q841 309 720 309 Q611 327 549 359 L549 419 Q853 680 853 759 L853 772 L841 772 Q788 772 744 748 Q731 748 707 759 Q556 759 501 662 L463 663 L427 686 L427 565 Q427 552 415 552 L427 529 L427 407 L451 407 Q451 443 475 443 Q513 431 513 371 L513 321 Q503 -7 463 -7 Q329 -7 329 419 Q354 653 354 1053 L354 1064 Q354 1092 366 1114 Q354 1134 354 1162 L354 1186 Q361 1260 391 1260 ZM1438 249 Q1461 235 1474 235 L1474 224 Q1474 184 1243 114 Q1193 107 1121 42 Q938 70 938 90 L938 152 Q938 182 1195 200 L1195 187 L1426 249 L1438 249 Z" /><glyph glyph-name="uni5446" unicode="&#x5446;" d="M670 1673 L755 1673 L755 1661 Q791 1360 791 1320 L780 1320 Q856 768 950 589 L950 552 Q950 528 926 528 Q805 529 755 931 Q734 931 670 1649 L670 1673 ZM1316 1467 Q1328 1466 1328 1454 L1388 1466 L1425 1466 Q1571 1467 1571 1333 Q1414 1052 1352 1052 L1352 1027 L1364 1027 L1474 1041 L1474 1004 Q1474 985 1266 917 Q1266 893 1243 893 Q1266 796 1266 747 L1255 601 Q1278 589 1292 589 Q1371 589 1608 686 Q1657 668 1657 649 L1657 626 Q1302 536 1266 491 L1266 235 Q1324 230 1633 -141 L1633 -190 Q1633 -213 1608 -214 L1583 -214 Q1350 -18 1304 113 L1255 113 Q1255 73 1243 53 Q1243 41 1255 41 L1243 -106 L1243 -166 L1255 -227 L1243 -227 L1255 -252 L1255 -434 L1266 -508 L1255 -531 Q1266 -553 1266 -581 L1266 -593 Q1266 -617 1243 -617 L1206 -617 Q1182 -617 1170 -543 Q1157 -107 1157 66 L1170 90 Q1170 101 1157 102 L1170 163 L1170 284 L1133 284 Q1051 142 987 -33 Q966 -60 841 -421 L816 -434 L791 -434 Q768 -434 768 -410 Q768 -269 1035 284 Q1073 350 1170 418 L1170 430 Q1157 455 1157 469 Q699 354 658 321 L572 321 Q545 321 524 310 Q438 325 438 345 L438 370 Q438 400 548 418 L548 430 L610 418 L634 418 L1170 552 L1170 747 L1157 834 L1133 833 Q1107 833 999 760 L975 759 Q957 759 939 796 L939 807 Q951 839 1060 893 Q1384 1126 1474 1357 Q1445 1381 1425 1381 L1402 1368 L1376 1381 L1304 1368 Q1292 1368 1292 1381 Q1233 1360 987 1332 L987 1344 L853 1283 Q822 1283 816 1332 Q816 1425 1316 1467 Z" /><glyph glyph-name="uni544A" unicode="&#x544a;" d="M1089 1467 Q1175 1467 1175 1371 L1163 1309 L1163 1053 L1175 1029 Q1371 1102 1371 1113 Q1336 1113 1285 1174 L1273 1174 L1273 1223 L1297 1223 Q1415 1125 1480 1125 L1480 1101 Q1459 1046 1248 979 Q1151 950 1151 834 Q1151 734 1127 626 L1139 626 Q1217 626 1614 724 L1638 711 Q1660 724 1688 724 L1700 724 Q1718 724 1736 686 L1736 674 Q1736 645 1394 589 Q718 407 407 407 L371 407 L359 430 L359 468 Q378 468 407 492 Q1041 513 1041 650 Q1065 804 1065 869 Q1054 893 1054 906 Q905 845 773 845 Q631 845 578 1015 Q578 1174 688 1321 Q712 1317 712 1296 Q663 1133 663 1027 L663 1003 Q707 931 773 931 L786 931 Q891 931 1077 1003 L1077 1199 Q1077 1225 1089 1247 Q1077 1269 1077 1296 L1077 1406 L1089 1467 ZM871 297 L907 297 Q931 297 956 175 Q944 152 944 139 L968 125 Q1141 187 1468 235 Q1554 237 1602 113 Q1573 -29 1406 -191 Q1446 -216 1468 -216 L1468 -228 Q1468 -244 1432 -264 L1334 -263 Q1175 -239 1175 -202 L1175 -178 Q1175 -151 1261 -130 Q1284 -143 1297 -143 Q1428 -143 1529 101 Q1521 163 1456 163 Q968 81 968 15 L956 -33 L1054 -362 Q1036 -410 1017 -409 L1005 -410 Q895 -359 871 139 L883 163 Q871 184 871 211 L871 297 Z" /><glyph glyph-name="uni56DE" unicode="&#x56de;" d="M341 843 Q369 843 391 650 L404 650 Q686 804 1562 804 L1613 804 Q1793 804 1793 662 L1793 573 Q1562 -173 1331 -173 Q1267 -173 1202 -44 L777 -108 Q726 -89 726 -69 L726 -57 Q808 15 1214 59 Q1279 43 1279 20 L1267 -44 Q1307 -69 1331 -69 Q1480 36 1639 394 Q1702 558 1702 650 Q1702 702 1548 715 Q909 715 404 573 Q404 525 533 33 Q533 15 495 -5 L456 -5 Q353 35 302 792 Q321 843 341 843 ZM1175 598 Q1244 598 1279 535 L1279 496 Q1279 450 1202 341 Q1254 341 1254 316 L1254 277 Q1254 249 971 187 Q971 162 880 162 L854 200 L854 239 Q1086 385 1163 483 L1163 496 Q1015 496 790 432 Q816 253 816 162 L777 136 Q700 136 700 573 L726 586 L739 586 Q765 586 777 508 Q981 598 1175 598 Z" /><glyph glyph-name="uni5728" unicode="&#x5728;" d="M1337 1362 Q1422 1362 1458 1199 L1458 1173 Q1458 1121 1147 1024 Q747 267 541 -201 Q497 -229 474 -229 Q407 -213 407 -121 Q447 -23 447 0 L474 0 L474 -41 L487 -41 Q487 17 1041 1011 L1026 1011 Q1003 998 972 998 Q623 939 614 979 L614 992 Q614 1019 1121 1119 Q1212 1318 1337 1362 ZM1242 1173 L1242 1159 Q1377 1186 1377 1227 Q1363 1251 1363 1280 L1337 1280 Q1286 1251 1242 1173 ZM1390 702 Q1444 702 1444 446 Q1553 473 1606 539 L1619 513 L1619 446 Q1619 408 1458 377 L1458 -54 Q1592 -41 1660 -41 Q1687 -85 1687 -121 Q1635 -216 1309 -216 L1296 -216 Q1107 -216 1107 -161 L1107 -134 Q1107 -81 1269 -81 L1337 -81 L1322 -13 L1322 323 Q1253 297 1013 230 L1013 -242 Q1013 -269 987 -269 L946 -269 Q909 -269 891 -161 Q916 513 959 513 L972 513 Q1013 513 1013 271 L1013 256 Q1054 297 1337 418 Q1337 702 1390 702 Z" /><glyph glyph-name="uni5730" unicode="&#x5730;" d="M707 1219 Q772 1195 772 1169 Q772 1154 756 1154 L772 1121 L772 1106 Q772 1089 756 1089 L772 1056 Q756 967 756 926 L837 926 Q934 916 934 878 L934 845 L869 845 L869 861 Q739 861 739 634 L739 196 L723 163 L739 163 Q936 278 967 309 L999 309 L999 261 Q977 261 837 114 Q597 -48 512 -48 L496 -15 L496 33 Q496 73 674 116 Q641 253 626 520 L641 520 L626 552 L626 569 L641 667 L626 699 Q641 727 641 763 L641 780 Q307 683 267 683 L252 765 Q630 878 659 878 L659 1186 Q659 1219 707 1219 ZM1471 1154 L1552 1154 Q1552 1121 1568 1121 L1552 1041 L1552 926 Q1716 1041 1779 1041 Q1818 1009 1844 1008 L1844 926 Q1751 276 1617 276 L1568 276 Q1568 178 1454 178 Q1433 178 1373 276 Q1376 358 1406 358 Q1454 358 1454 309 L1471 309 L1471 407 Q1471 513 1454 732 Q1350 689 1341 650 L1341 422 Q1341 59 1454 -15 Q1542 -64 1601 -64 Q1642 -64 1714 -15 L1746 -15 L1746 -48 Q1649 -162 1568 -162 L1552 -162 Q1243 -108 1243 293 L1243 326 L1260 326 L1243 358 L1243 439 L1227 601 L1112 585 L1097 618 L1097 651 Q1097 684 1227 715 L1210 910 L1210 1008 Q1216 1041 1243 1041 L1292 1041 Q1319 1041 1341 943 Q1323 855 1323 796 L1323 780 L1341 780 Q1454 848 1454 878 L1454 1041 L1471 1154 ZM1552 748 L1552 650 Q1552 512 1601 389 Q1649 389 1746 910 Q1596 910 1552 748 Z" /><glyph glyph-name="uni5750" unicode="&#x5750;" d="M1085 1381 Q1146 1365 1146 1211 L1146 1101 L1158 1041 L1146 1041 L1158 1016 L1146 931 Q1158 847 1158 798 Q1146 796 1146 784 L1170 784 Q1280 1272 1340 1272 L1364 1272 Q1389 1267 1389 1247 Q1328 1113 1170 480 Q1148 480 1146 418 L1146 394 Q1454 468 1474 493 Q1499 480 1511 480 L1511 455 Q1496 409 1158 322 Q1120 263 1120 101 L1120 65 Q1120 53 1108 53 L1120 29 L1120 15 Q1096 -101 1096 -117 L1096 -165 L1243 -166 Q1270 -166 1292 -154 Q1511 -191 1511 -240 L1511 -264 Q1511 -293 1450 -301 Q1323 -252 1267 -252 Q997 -276 743 -324 Q693 -306 693 -288 Q693 -236 1011 -191 Q1011 -157 1048 139 L1048 260 L1036 284 Q834 235 719 235 L693 272 L693 284 Q693 319 975 345 Q1072 363 1072 430 L1072 442 Q1072 480 1060 480 L1072 540 L1072 1137 Q1072 1165 1060 1186 Q1060 1199 1072 1199 L1048 1370 Q1072 1381 1085 1381 ZM743 1332 Q791 1313 791 1296 Q658 1042 524 493 Q524 464 512 442 Q512 430 524 431 L500 211 Q535 130 535 113 Q524 66 462 66 Q414 120 414 151 Q414 587 719 1320 Q743 1320 743 1332 ZM707 905 L755 905 L1011 724 L1011 699 Q1011 681 975 662 Q682 805 682 870 L682 882 Q686 905 707 905 ZM1425 893 Q1681 865 1681 809 L1681 784 Q1645 754 1645 735 L1583 735 Q1551 784 1523 784 Q1502 784 1450 809 Q1426 796 1414 796 Q1358 821 1352 845 Q1352 860 1425 893 Z" /><glyph glyph-name="uni57AB" unicode="&#x57ab;" d="M1311 1416 L1324 1388 Q1227 1148 1227 1085 Q1487 1181 1545 1181 L1560 1181 Q1587 1177 1587 1153 L1587 1111 Q1490 840 1490 711 L1490 627 Q1490 490 1656 490 L1670 490 Q1776 490 1795 545 Q1795 552 1739 614 L1739 627 Q1831 590 1850 545 L1850 530 Q1850 420 1726 420 L1601 420 Q1453 420 1421 614 L1421 751 Q1421 851 1505 1098 Q1200 1019 1200 974 Q1158 791 1158 724 Q1208 724 1268 641 L1268 614 Q1268 594 1227 572 L1214 572 L1131 627 Q1113 296 1061 296 L1019 296 Q970 296 951 558 L978 558 Q978 543 1019 433 L1034 433 Q1074 616 1074 683 Q1030 780 964 780 L964 807 Q995 807 1019 821 L1103 780 Q1145 953 1145 988 Q1089 959 1048 959 L1034 988 L1034 1001 Q1171 1074 1171 1098 Q1269 1416 1311 1416 ZM632 1333 L661 1333 Q702 1319 702 1250 L702 1014 L854 1014 Q881 1010 881 988 L881 974 Q881 932 702 932 L702 848 L716 848 Q749 848 854 904 L868 877 Q797 844 716 738 Q729 425 729 350 Q709 296 687 296 L619 296 Q540 353 508 420 L508 447 Q582 378 619 378 L619 669 L439 545 L424 545 Q397 545 397 572 L397 600 L605 780 L605 917 L287 848 L273 848 Q245 848 245 877 L245 891 Q296 948 605 1001 L605 1305 Q609 1333 632 1333 ZM1061 267 Q1110 217 1117 130 Q1154 130 1435 156 Q1490 136 1490 116 L1490 101 Q1490 81 1448 59 L1324 59 Q1255 59 1117 46 Q1117 -26 1131 -189 L1268 -175 L1490 -175 Q1558 -211 1560 -231 L1560 -257 Q1560 -286 1532 -286 Q1519 -286 1421 -257 L1379 -257 Q1261 -257 702 -328 L674 -328 Q654 -328 632 -286 Q632 -253 1034 -202 L1034 33 Q751 -37 702 -37 L687 -9 Q687 43 1034 101 L1034 240 Q1038 267 1061 267 Z" /><glyph glyph-name="uni590F" unicode="&#x590f;" d="M1114 1607 Q1382 1599 1382 1559 L1382 1547 Q1382 1529 1345 1509 L1138 1509 Q1066 1509 992 1327 Q968 1327 968 1230 L1224 1278 Q1357 1250 1357 1156 L1357 1132 Q1357 1120 1345 1120 Q1345 1107 1357 1107 Q1297 666 1236 426 Q1209 425 1187 413 Q1126 413 1126 547 L1102 547 Q864 304 675 -343 L687 -367 L687 -381 Q687 -392 675 -392 L687 -416 L687 -465 Q687 -482 651 -502 L639 -502 Q609 -477 590 -477 L590 -416 Q590 -260 821 278 L809 303 Q809 315 821 315 L809 376 L809 425 Q737 425 737 461 Q737 475 809 521 L797 547 L797 559 Q797 586 809 607 Q799 657 785 657 L797 705 Q797 864 724 864 L724 876 Q858 1243 980 1485 L980 1498 Q722 1449 675 1449 L614 1449 L553 1461 L553 1473 Q553 1520 1102 1595 Q1102 1607 1114 1607 ZM882 1071 L882 1010 L895 986 Q1054 1034 1126 1034 L1138 1034 Q1156 1034 1175 999 Q1175 977 1028 925 L1005 936 Q870 900 870 864 Q882 843 882 815 Q1033 851 1089 851 Q1168 827 1175 828 L1175 816 Q1175 795 980 755 Q882 697 882 681 L882 631 Q885 571 907 571 Q1001 571 1212 693 Q1272 1042 1272 1156 Q1267 1181 1212 1205 Q1188 1192 1175 1194 L1175 1206 Q1159 1205 895 1120 Q882 1098 882 1071 ZM1357 328 L1370 328 Q1389 328 1419 278 L1419 230 Q1419 150 1212 -185 Q1212 -227 1419 -381 Q1508 -456 1541 -514 L1541 -550 L1492 -550 Q1253 -385 1138 -283 Q1022 -441 907 -441 L882 -404 L882 -381 Q957 -381 1078 -232 L1089 -233 L1089 -221 Q907 -5 907 23 L944 46 L956 46 L1150 -124 L1164 -124 Q1334 152 1334 242 L1285 266 Q995 156 956 156 L944 182 L944 193 Q1118 328 1357 328 Z" /><glyph glyph-name="uni5927" unicode="&#x5927;" d="M926 1508 Q1047 1474 1047 1338 L1047 851 Q1285 948 1339 948 L1411 948 Q1460 941 1460 900 L1460 851 Q1460 812 1019 711 Q998 381 560 -219 L462 -219 Q414 -219 414 -170 L414 -49 Q422 0 462 0 L487 0 Q487 -49 512 -49 Q669 -49 900 705 Q718 657 560 657 L478 662 L414 705 Q731 724 927 816 L949 1387 L876 1484 L926 1508 ZM1169 560 L1193 560 Q1679 90 1679 -195 L1679 -244 Q1679 -293 1631 -293 Q1584 -290 1362 267 Q1169 486 1169 560 Z" /><glyph glyph-name="uni5929" unicode="&#x5929;" d="M1089 1375 L1126 1375 Q1285 1352 1285 1278 Q1285 1252 1187 1181 Q1035 900 1028 815 L1040 815 Q1367 900 1419 900 Q1504 883 1504 864 L1504 827 Q992 750 992 705 Q746 96 737 -233 Q748 -257 748 -271 L699 -318 L687 -319 L639 -283 Q639 -90 895 705 L870 705 Q841 705 712 669 Q699 670 699 682 L639 669 L541 670 L541 706 Q541 724 578 741 L589 741 Q944 756 944 827 Q1054 1128 1163 1266 L1163 1290 L1040 1290 Q1028 1290 1028 1302 Q780 1254 724 1254 Q699 1255 699 1278 Q699 1340 1089 1375 ZM1040 523 L1089 510 Q1113 524 1126 523 Q1442 244 1480 59 Q1523 13 1553 -172 Q1529 -228 1504 -233 L1480 -233 Q1344 237 1004 486 L1004 498 Q1004 523 1040 523 Z" /><glyph glyph-name="uni5934" unicode="&#x5934;" d="M1132 1330 L1147 1330 Q1261 1297 1261 1217 Q1231 809 1161 475 L1174 475 Q1759 532 1844 532 Q1901 512 1901 490 L1901 447 Q1901 436 1858 404 Q1843 404 1817 418 Q1118 388 1118 332 Q985 -77 690 -251 Q666 -265 634 -265 L591 -265 Q571 -265 549 -222 L549 -209 Q549 -114 706 6 L720 6 L720 -9 Q672 -71 620 -179 L648 -179 Q1019 116 1019 348 Q347 205 278 205 L250 205 Q193 228 193 305 L193 319 L221 319 Q221 287 236 262 Q752 404 1075 461 Q1174 873 1174 1159 L1174 1258 L1132 1316 L1132 1330 ZM648 1173 L663 1173 Q905 1014 905 1002 L905 974 Q905 945 876 945 Q772 945 648 1145 L648 1173 ZM563 873 Q563 789 819 789 Q962 757 962 717 L962 689 Q962 660 919 660 Q520 730 520 803 L520 832 Q520 851 563 873 ZM1303 262 L1332 262 Q1332 231 1588 20 Q1674 -96 1674 -194 Q1648 -322 1616 -322 L1602 -322 Q1570 -322 1503 -122 Q1303 166 1303 248 L1303 262 Z" /><glyph glyph-name="uni5973" unicode="&#x5973;" d="M812 1267 Q844 1262 844 1234 L844 1169 Q844 961 877 747 Q1347 789 1380 812 Q1465 1089 1526 1089 L1543 1089 Q1576 1084 1576 1056 L1576 1040 L1543 1056 L1526 1056 L1446 795 L1608 812 L1706 812 Q1738 807 1738 780 L1738 763 Q1738 708 1428 699 Q1336 329 1235 98 Q1235 42 1428 -98 L1446 -98 Q1478 -98 1511 130 L1526 130 Q1543 -133 1543 -163 L1478 -211 L1446 -211 Q1202 -129 1202 -32 L1153 -33 Q1153 -108 958 -163 L926 -163 Q788 -162 698 -33 L698 -16 L715 -16 Q830 -98 909 -98 Q1041 -60 1104 65 Q922 260 828 649 L812 649 Q390 603 390 520 L357 521 L357 585 Q563 732 812 732 L795 926 L795 1023 Q795 1104 812 1267 ZM909 667 Q1019 315 1169 178 Q1332 649 1332 699 L909 667 Z" /><glyph glyph-name="uni5979" unicode="&#x5979;" d="M596 1363 L644 1363 Q670 1360 670 1339 Q560 979 560 608 L572 608 Q779 634 779 768 Q803 974 840 975 L876 974 L913 948 Q803 422 694 11 Q731 -30 852 -63 L864 -86 Q847 -135 828 -135 L754 -135 Q710 -135 658 -86 L644 -86 Q584 -172 499 -172 L474 -135 Q572 -34 572 11 Q474 141 474 364 L474 438 Q385 438 353 304 L304 292 L267 352 L267 376 Q367 547 463 547 L463 583 L474 657 Q474 669 463 669 Q489 1093 560 1290 Q579 1363 596 1363 ZM1485 1302 L1510 1302 L1534 1290 L1522 1144 L1522 815 L1534 815 Q1707 864 1729 865 Q1802 864 1827 755 Q1730 375 1620 304 Q1572 292 1534 292 L1522 315 Q1648 417 1717 693 Q1717 702 1729 768 L1705 778 Q1510 778 1510 608 Q1510 462 1485 388 Q1485 376 1498 376 Q1440 35 1376 35 L1326 23 L1303 121 Q1412 253 1412 658 Q1424 657 1424 669 Q1412 670 1412 682 Q1193 634 1193 559 Q1193 473 1168 473 L1181 425 Q1181 384 1168 218 Q1168 -135 1400 -196 Q1464 -209 1474 -208 Q1698 -147 1729 -147 Q1753 -152 1753 -172 L1753 -184 Q1753 -211 1632 -244 Q1632 -272 1485 -306 L1436 -306 Q1325 -306 1157 -170 Q1071 -29 1071 194 Q1071 234 1084 547 Q946 474 913 473 Q864 492 864 510 L864 547 L1107 657 Q1157 1120 1193 1120 L1230 1120 L1266 1095 L1205 705 Q1252 705 1436 778 Q1424 922 1424 986 L1424 1095 Q1424 1123 1436 1144 Q1436 1156 1424 1156 Q1444 1302 1485 1302 ZM560 486 Q560 333 609 133 Q648 173 742 596 L730 596 Q560 501 560 486 Z" /><glyph glyph-name="uni597D" unicode="&#x597d;" d="M559 1352 L571 1351 L596 1339 Q608 1076 608 948 L608 876 Q609 754 631 754 L937 827 Q992 1107 1035 1107 L1071 1107 L1071 1058 L1046 1070 Q1010 851 998 814 Q1019 803 1046 803 L1046 778 Q974 778 974 668 Q888 341 791 156 Q878 22 949 22 Q986 91 998 180 L1010 180 L1010 34 Q1010 -38 937 -37 L925 -38 Q859 -38 741 70 Q647 -26 571 -27 Q495 -27 450 70 L461 70 Q516 22 523 22 L535 22 Q620 23 693 143 Q559 411 559 645 Q440 595 266 559 L242 596 Q242 641 547 717 L547 741 Q547 928 559 1352 ZM1522 1278 L1535 1278 Q1628 1278 1643 1144 Q1643 1038 1425 851 Q1608 725 1608 535 Q1745 559 1815 559 Q1838 547 1851 547 L1851 521 Q1851 485 1632 462 Q1643 130 1643 58 Q1624 -294 1485 -295 L1462 -295 Q1230 -232 1230 -174 L1242 -174 Q1340 -234 1450 -234 L1485 -234 Q1571 -152 1571 96 L1571 438 L1559 437 Q1419 433 1046 315 L1046 327 Q1046 438 1412 486 Q1412 498 1559 521 Q1559 713 1352 876 Q1547 1091 1547 1192 Q1547 1210 1510 1230 L1485 1230 Q1433 1230 1217 1205 L1194 1205 L1194 1217 Q1437 1278 1522 1278 ZM620 657 Q657 416 729 241 Q810 337 913 754 L620 657 Z" /><glyph glyph-name="uni5B50" unicode="&#x5b50;" d="M1143 1203 L1293 1188 Q1330 1184 1348 1086 Q1348 982 993 739 Q1182 719 1253 453 L1280 464 Q1509 455 1635 442 Q1718 425 1718 393 L1718 352 Q1692 294 1567 271 L1567 298 L1595 337 L1582 339 Q1486 349 1280 354 L1280 245 Q1280 157 1293 67 Q1293 -309 1019 -330 L1006 -329 Q830 -311 719 -68 L747 -56 Q872 -220 980 -231 L1006 -233 Q1172 -250 1198 62 L1198 321 L1184 351 Q963 332 432 249 L419 250 Q399 252 377 295 L377 309 Q377 342 952 442 Q1170 443 1170 490 Q1107 659 966 673 L870 683 Q850 684 829 728 Q1165 957 1198 1005 Q1266 1071 1266 1109 Q1253 1110 1253 1123 Q967 1152 570 1055 L555 1084 L555 1098 Q808 1236 1143 1203 Z" /><glyph glyph-name="uni5B69" unicode="&#x5b69;" d="M1340 1539 Q1506 1499 1558 1406 L1558 1393 Q1558 1375 1510 1357 Q1412 1442 1364 1442 Q1315 1460 1315 1478 L1315 1516 Q1319 1539 1340 1539 ZM1450 1260 Q1547 1234 1547 1174 Q1547 1032 1084 480 L1084 469 L1096 469 Q1189 490 1401 578 Q1455 711 1547 784 L1583 784 Q1620 772 1620 711 Q1564 711 1522 602 Q1534 581 1534 552 Q1466 514 1340 297 Q1143 -21 1133 -55 L1145 -117 Q1145 -189 1047 -201 L1035 -200 Q1018 -201 999 -165 Q999 -31 1291 407 Q1291 420 1303 443 L1291 443 Q1012 322 962 322 L926 322 Q901 322 901 345 L901 359 Q901 439 1133 662 Q1286 865 1437 1101 L1437 1137 Q1437 1162 1412 1162 L1340 1162 Q1268 1162 986 1027 L938 1029 L938 1077 Q1223 1260 1450 1260 ZM670 1137 Q733 1137 780 1066 Q737 935 523 627 Q523 592 670 492 Q748 517 768 517 L768 480 Q727 420 719 419 Q742 375 742 322 L742 152 Q669 -275 487 -275 L451 -275 Q433 -275 414 -239 L414 -213 Q606 -213 645 261 Q638 371 621 372 Q597 371 512 310 Q500 310 304 140 L280 139 Q256 139 256 164 L256 187 Q324 303 512 407 Q512 431 561 431 Q561 447 439 529 L427 590 L427 662 Q567 856 645 992 Q659 992 659 1003 L659 1041 Q621 1041 621 1054 Q468 1036 439 1027 L414 1041 Q390 1027 377 1027 Q329 1046 329 1065 L329 1076 Q329 1107 670 1137 ZM1681 419 Q1729 402 1729 383 L1729 371 Q1587 187 1364 -263 Q1274 -467 1255 -482 L1205 -482 L1193 -420 Q1309 -100 1608 359 L1681 419 ZM1522 -104 L1547 -104 Q1650 -104 1827 -396 L1839 -445 L1803 -470 L1754 -470 Q1635 -302 1498 -141 L1498 -129 Q1502 -104 1522 -104 Z" /><glyph glyph-name="uni5B9A" unicode="&#x5b9a;" d="M834 1527 Q1084 1418 1089 1384 L1089 1371 Q1089 1342 1062 1342 L1048 1342 Q954 1342 806 1513 L834 1527 ZM1758 1328 Q1801 1276 1801 1229 Q1801 1120 1489 944 L1474 944 L1474 957 L1715 1213 L1715 1229 L1516 1229 Q1337 1229 492 1071 L478 1071 L478 1114 Q1393 1328 1758 1328 ZM407 1285 L436 1285 L436 1271 Q407 759 407 716 Q436 712 436 688 L436 546 Q436 525 393 503 L365 503 Q318 503 293 645 Q339 1207 407 1285 ZM1318 1014 L1331 1014 Q1352 1014 1374 972 Q1374 916 663 745 L635 745 Q607 745 607 772 Q607 846 1318 1014 ZM1033 787 L1076 787 Q1119 618 1119 403 L1119 318 L1133 318 Q1133 417 1489 417 Q1545 396 1545 375 Q1545 352 1489 318 L1161 318 Q1141 318 1119 275 L1119 -95 Q1119 -115 1076 -137 L1062 -137 Q1019 -123 1019 -52 L1019 76 Q1019 295 1033 787 ZM720 488 Q748 454 748 431 Q720 -64 720 -95 Q720 -308 905 -308 L949 -308 Q1132 -308 1459 -236 L1459 -266 Q1198 -421 949 -421 Q680 -421 635 -195 L635 -66 Q654 438 707 474 Q707 488 720 488 Z" /><glyph glyph-name="uni5BA4" unicode="&#x5ba4;" d="M882 1454 Q981 1450 1199 1234 L1199 1210 Q1199 1124 1114 1124 Q1089 1124 1077 1222 L895 1381 Q878 1381 858 1418 L858 1430 Q861 1454 882 1454 ZM541 1211 L565 1198 L529 893 L529 881 L541 882 Q671 979 1126 1040 L1126 1027 Q1126 1040 1321 1052 Q1686 1052 1686 917 L1686 881 Q1686 800 1467 637 Q1371 552 1309 552 Q1284 552 1284 576 Q1284 593 1419 686 Q1543 799 1601 905 Q1515 965 1431 966 L1309 966 Q1282 966 1261 954 Q1247 954 1247 966 Q1163 966 944 917 L919 931 Q689 878 565 807 Q542 821 529 821 Q508 784 493 601 L517 418 L505 418 Q529 371 529 284 L529 272 Q529 244 469 235 L420 297 Q420 321 407 564 Q432 1133 517 1210 L541 1211 ZM1187 783 L1235 783 Q1253 783 1273 747 Q1273 635 1151 589 Q1078 479 919 382 Q919 361 834 284 L846 284 Q1115 358 1175 395 L1163 418 L1163 468 Q1163 485 1199 504 Q1287 504 1382 321 Q1394 299 1394 272 Q1371 217 1345 211 L1333 212 Q1305 211 1273 309 L1235 332 Q1126 285 1126 272 L1151 77 Q1195 77 1370 151 Q1388 151 1419 101 Q1375 52 1175 -7 Q1151 -48 1151 -81 L1151 -214 Q1155 -240 1175 -239 L1235 -227 Q1235 -240 1247 -240 Q1247 -214 1284 -214 Q1410 -214 1480 -312 L1480 -337 Q1480 -354 1442 -373 L1406 -373 Q1390 -361 1296 -312 Q1200 -312 822 -398 L772 -398 L749 -361 L749 -337 Q749 -312 906 -288 L906 -300 Q1041 -267 1041 -214 Q1041 -166 1054 -166 L1041 -142 Q1054 -119 1054 -106 Q1041 -68 1029 -68 Q991 -68 760 -166 Q737 -166 737 -191 L724 -191 Q706 -191 688 -154 L688 -142 Q744 -65 1054 41 L1029 260 L1016 261 Q828 151 700 152 Q675 163 663 163 L663 187 Q663 276 760 332 Q868 451 1016 565 Q1016 578 1102 662 L1102 674 L1065 674 Q1012 674 968 649 L944 662 Q859 637 798 637 L772 637 L760 699 Q760 730 979 759 L992 759 L992 747 Q1110 783 1187 783 Z" /><glyph glyph-name="uni5C06" unicode="&#x5c06;" d="M1255 1576 Q1278 1564 1291 1564 L1291 1528 Q1230 1528 1085 1125 L1097 1125 Q1244 1163 1462 1174 Q1522 1155 1522 1101 Q1522 1060 1353 759 Q1402 743 1426 699 Q1426 683 1364 638 L1353 638 L1364 662 L1364 674 Q1343 674 1303 699 Q1153 430 1047 430 L987 442 L987 480 L1011 468 L1023 468 Q1138 567 1230 736 Q1105 796 1071 796 Q1060 798 999 749 L999 760 Q1033 834 1145 834 Q1212 809 1278 809 Q1450 1068 1450 1125 L1437 1125 Q1047 1097 1047 1065 Q797 466 768 430 Q746 419 718 419 Q682 420 682 469 L670 468 Q645 333 645 53 L645 -106 Q645 -185 658 -350 L596 -374 Q524 -373 524 -190 L524 152 Q524 237 535 419 Q359 309 291 309 Q243 328 243 345 L243 358 Q313 455 328 455 L341 455 L341 442 L304 371 L316 370 Q548 480 548 540 Q560 585 584 857 Q537 834 450 834 L376 834 Q315 834 304 870 L304 882 Q304 919 548 931 Q632 931 632 1382 L658 1394 L670 1394 Q708 1395 718 1137 Q706 1034 706 967 Q742 967 742 943 Q690 943 670 516 L670 492 L682 493 Q682 605 1059 1344 Q1168 1539 1255 1576 ZM1450 626 Q1522 592 1522 394 Q1738 443 1791 443 L1828 442 Q1851 439 1851 419 L1851 407 Q1850 385 1522 297 L1522 -57 Q1522 -520 1426 -520 Q1334 -520 1145 -410 L1145 -386 L1157 -385 Q1247 -434 1388 -447 Q1426 -359 1426 15 L1426 272 Q982 139 852 139 L840 139 Q750 139 742 175 L742 199 L865 261 L828 211 L852 211 Q939 211 1426 358 L1426 552 L1413 552 L1413 516 L1388 516 L1388 614 L1450 626 ZM1059 -45 L1243 -45 Q1316 -51 1316 -80 L1316 -104 Q1303 -143 1243 -143 L1133 -143 L1047 -130 Q1047 -143 1035 -143 Q1035 -125 987 -81 Q999 -44 1059 -45 Z" /><glyph glyph-name="uni5E05" unicode="&#x5e05;" d="M671 1594 L707 1594 Q725 1594 743 1546 Q719 1546 645 619 Q659 598 659 571 Q659 527 645 461 L659 438 Q659 425 645 425 L659 340 L659 47 L694 -2 L694 -13 Q694 -77 707 -221 L645 -233 L609 -233 Q561 -233 561 47 L561 72 L549 133 L561 133 L549 156 L549 194 Q549 206 561 206 Q561 218 549 218 Q549 233 561 340 Q561 389 549 438 Q584 1265 609 1265 Q609 1278 597 1278 Q630 1595 671 1594 ZM1315 1301 L1376 1301 Q1413 1241 1425 997 L1437 997 Q1547 1022 1596 1022 L1693 1022 Q1839 975 1839 876 Q1839 668 1644 364 Q1529 242 1486 242 Q1475 243 1413 293 L1401 292 L1401 194 L1389 121 Q1389 108 1401 108 L1389 -37 L1389 -452 L1401 -513 L1364 -538 L1315 -538 Q1279 -538 1267 -390 L1279 -390 Q1279 -379 1267 -379 Q1303 -106 1303 571 L1303 766 Q1303 793 1315 815 Q1303 838 1303 851 Q1099 802 1024 741 L1024 631 Q1024 547 1096 499 L1109 438 Q1085 279 1036 279 Q926 316 926 523 L926 985 Q926 1132 975 1132 L1036 1120 L1024 1034 L1024 900 L1059 900 L1121 912 L1121 900 Q1300 953 1303 961 Q1315 985 1315 997 Q1315 1058 1291 1289 L1315 1301 ZM377 1168 Q396 1168 414 1120 Q390 707 366 560 L390 498 Q381 340 317 340 Q256 360 256 400 Q304 1168 342 1168 L377 1168 ZM1413 877 Q1413 865 1425 864 L1401 559 Q1413 539 1413 512 L1401 510 L1413 486 L1413 402 Q1430 400 1474 352 L1499 352 Q1605 436 1644 559 Q1741 736 1741 838 Q1741 936 1608 936 Q1468 920 1413 877 Z" /><glyph glyph-name="uni5E26" unicode="&#x5e26;" d="M1340 1618 L1376 1618 L1376 1595 Q1376 1581 1352 1460 L1352 1423 L1473 1411 L1535 1411 L1547 1351 L1498 1327 Q1476 1339 1450 1339 Q1410 1313 1388 1313 L1388 1327 Q1313 1327 1291 1058 Q1247 936 1230 936 L1194 936 Q1194 949 1181 974 Q1230 1250 1230 1290 L1218 1290 L1157 1278 Q1168 1134 1168 1070 L1108 1046 Q1085 1058 1071 1058 L1071 1143 Q1071 1174 1047 1253 L987 1241 L901 1241 L901 1046 L926 1010 Q926 888 840 889 L803 936 L803 1192 Q803 1217 779 1217 L706 1217 L633 1205 Q609 1217 596 1217 L596 1265 Q596 1301 803 1301 L803 1558 Q803 1575 840 1595 Q864 1582 877 1582 L877 1472 Q877 1445 889 1423 Q877 1400 877 1387 Q877 1366 901 1313 Q1047 1332 1047 1363 L1035 1411 Q1051 1558 1084 1558 L1096 1559 Q1129 1558 1157 1364 Q1278 1363 1278 1509 Q1316 1619 1340 1618 ZM1571 986 Q1716 985 1753 900 L1753 888 Q1753 794 1462 547 L1352 473 L1327 473 L1327 498 Q1551 700 1693 876 Q1674 924 1657 924 Q1507 924 913 766 L572 693 L572 729 Q572 757 718 790 L718 778 Q1436 985 1571 986 ZM486 961 L512 961 Q536 957 536 936 L438 473 Q438 461 451 461 Q438 398 426 218 Q438 -2 451 -2 Q499 -20 499 -37 L499 -75 Q499 -173 414 -173 L402 -173 Q365 -172 341 -63 Q341 483 451 912 Q469 961 486 961 ZM1230 741 Q1278 741 1278 571 L1266 461 Q1278 440 1278 413 Q1388 461 1450 461 L1510 461 Q1620 439 1620 376 Q1498 -112 1304 -112 L1254 -111 L1242 -257 L1242 -477 Q1242 -562 1168 -562 L1145 -526 L1145 -306 Q1145 -294 1157 -293 L1145 -269 L1145 -245 Q1145 -209 1157 -208 L1145 -161 Q1168 171 1168 303 Q971 242 949 218 L901 -135 L913 -161 Q899 -257 865 -257 L851 -257 Q835 -257 803 -196 L803 -51 Q877 351 937 596 L961 607 L987 607 Q1010 604 1010 583 Q987 441 987 340 L1010 328 Q1194 366 1194 449 Q1194 741 1230 741 ZM1266 315 Q1266 132 1242 132 L1254 109 L1254 -25 L1266 -51 Q1383 -51 1535 303 Q1535 358 1547 376 L1510 400 L1473 400 L1266 315 Z" /><glyph glyph-name="uni5E73" unicode="&#x5e73;" d="M1263 1431 Q1318 1410 1318 1389 L1318 1375 Q1318 1333 567 1195 L526 1195 Q451 1195 428 1250 L443 1278 L498 1264 Q548 1264 1249 1431 L1263 1431 ZM1165 1180 L1208 1180 Q1278 1145 1278 1069 L1278 1000 Q1278 799 1138 666 L1096 666 L1069 680 L1069 637 Q1361 680 1696 680 L1736 623 Q1736 586 1667 553 L1445 568 Q1093 548 1082 526 Q1082 -574 1012 -574 L985 -574 Q887 -574 887 -156 Q901 -73 929 -73 Q957 -73 957 -114 L971 -114 L971 513 Q480 429 387 429 L359 470 Q359 527 971 623 L971 666 Q971 1049 929 1139 Q956 1153 971 1153 Q1069 1153 1069 777 L1082 777 Q1165 966 1165 1069 Q1138 1124 1138 1166 L1165 1180 ZM651 1055 Q693 1055 693 777 L720 763 Q720 818 874 888 L874 873 Q759 609 693 609 Q610 609 610 790 Q610 1055 651 1055 Z" /><glyph glyph-name="uni5E74" unicode="&#x5e74;" d="M841 1496 Q841 1481 858 1481 Q810 1377 810 1227 L810 1147 Q1223 1321 1301 1321 L1333 1321 Q1358 1321 1397 1258 L1397 1242 Q1376 1100 1254 1100 Q1226 1100 1174 1132 Q908 1004 762 1004 Q667 1004 667 1115 Q744 1496 841 1496 ZM1127 1084 L1159 1084 Q1191 1079 1191 1052 L1191 925 L1301 925 Q1333 921 1333 893 L1333 831 Q1333 761 1206 640 Q1206 583 1222 497 Q1191 446 1191 403 L1191 386 L1206 386 Q1240 386 1412 433 L1397 465 L1397 482 L1412 482 Q1619 420 1619 403 L1619 371 Q1619 339 1587 339 L1476 339 Q1359 339 1191 292 L1191 164 Q1191 -194 1111 -565 L1080 -565 L1080 -517 Q1080 -433 1063 -375 Q1080 -256 1111 260 L1095 260 Q1056 260 635 85 L509 85 Q477 85 477 117 Q477 140 890 322 L1031 450 L1016 450 Q913 418 873 418 L858 418 Q826 418 826 450 Q826 472 1111 735 L1111 782 Q731 624 652 624 L620 672 Q620 755 952 831 Q952 846 1111 893 L1111 972 L1127 1084 Z" /><glyph glyph-name="uni5EA7" unicode="&#x5ea7;" d="M872 1424 L895 1424 Q1042 1376 1053 1376 L1177 1376 Q1217 1326 1261 1326 Q1299 1278 1322 1278 L1322 1229 Q991 1119 920 1083 Q676 671 530 144 Q433 -330 433 -466 Q451 -466 468 -502 Q454 -624 420 -624 L396 -623 Q336 -592 335 -575 L335 -550 Q335 -254 603 620 Q810 1055 810 1083 Q539 1009 445 1009 L433 1035 L433 1058 Q433 1083 676 1119 Q957 1191 957 1278 Q981 1278 981 1303 L981 1314 Q932 1315 872 1400 L872 1424 ZM1505 1071 Q1523 1071 1542 1035 L1542 1023 Q1542 990 1420 706 L1445 706 Q1713 686 1713 620 Q1713 534 1628 535 Q1610 535 1590 596 Q1438 620 1383 668 Q1347 555 1347 462 L1347 314 L1359 314 Q1467 332 1700 424 L1713 424 Q1736 421 1736 400 L1736 364 L1371 217 Q1331 217 1310 -15 Q1299 -15 1299 -27 L1322 -39 Q1453 -15 1555 -15 Q1695 -15 1749 -99 L1749 -148 Q1736 -148 1713 -161 Q1603 -133 1603 -99 L1578 -113 L1555 -113 Q1530 -113 1530 -87 Q1427 -113 1261 -113 L1201 -113 Q1014 -161 884 -173 L872 -148 L872 -125 Q900 -70 1213 -51 Q1249 123 1249 157 Q1237 180 1237 193 Q1159 154 969 132 Q884 148 884 181 Q895 204 895 217 L908 217 Q1147 217 1261 302 L1261 437 Q1213 473 1213 498 Q1225 539 1225 583 Q1053 649 1053 681 L1053 706 Q1053 729 1091 730 Q1111 729 1261 668 Q1287 721 1287 864 L1287 949 Q1293 1023 1322 1023 L1347 1023 L1371 1009 L1359 925 L1359 815 L1383 815 Q1476 1068 1505 1071 ZM1091 998 L1103 997 L1139 973 Q1005 744 895 437 Q895 420 860 400 L822 400 Q822 410 810 473 Q947 811 1091 998 Z" /><glyph glyph-name="uni5F00" unicode="&#x5f00;" d="M1525 1373 Q1552 1368 1552 1345 L1552 1331 Q1552 1296 1443 1277 L1430 1277 L1443 1305 L1430 1305 Q1388 1305 625 1168 L612 1195 Q612 1247 1498 1373 L1525 1373 ZM1388 1264 L1416 1264 L1416 1250 L1388 1250 L1388 1264 ZM1294 1128 L1321 1128 Q1430 1090 1430 772 L1430 759 L1458 772 L1607 772 Q1635 768 1635 746 L1635 732 Q1635 686 1430 663 Q1443 169 1443 -46 L1443 -236 Q1443 -360 1375 -360 Q1266 -338 1266 -142 L1279 -142 L1307 -155 L1307 649 Q979 598 979 568 L979 540 Q979 -100 885 -100 L830 -100 Q789 -100 761 36 Q772 200 803 200 L816 200 Q816 165 830 90 L843 90 Q885 404 885 568 Q671 499 544 499 L489 499 Q461 499 461 527 L461 540 Q461 560 544 623 L544 609 L516 568 L516 554 Q548 554 898 649 L898 855 L912 936 Q898 963 898 977 L912 977 Q929 977 979 895 L979 677 Q1292 746 1307 746 L1307 991 L1294 1128 Z" /><glyph glyph-name="uni5F81" unicode="&#x5f81;" d="M865 1411 L889 1411 Q913 1407 913 1387 L913 1375 Q808 1294 681 1095 Q609 997 597 936 Q609 915 609 888 L609 876 Q609 858 572 838 Q511 864 511 924 L511 936 Q511 1047 742 1289 Q783 1366 865 1411 ZM926 1082 L974 1082 Q962 1080 657 631 Q414 261 414 108 L438 120 L500 120 Q500 62 438 23 Q429 -38 402 -38 L328 -38 Q328 -14 304 -13 L304 97 Q304 174 462 438 Q677 831 926 1082 ZM1595 1058 Q1669 1046 1669 1022 L1669 1010 Q1534 912 1534 717 Q1534 530 1522 46 L1511 46 L1522 23 Q1515 -75 1485 -75 L1473 -75 Q1455 -75 1425 11 L1437 96 L1437 218 Q1437 461 1461 535 Q1461 547 1449 547 Q1449 829 1511 948 L1303 924 L1291 948 L1291 997 Q1571 1058 1595 1058 ZM840 657 L865 657 L865 645 Q865 498 840 498 Q840 486 852 486 L791 156 Q791 144 803 144 L791 59 L791 -147 Q791 -191 803 -257 Q784 -355 755 -355 L742 -355 Q724 -355 693 -306 L693 -135 Q693 -108 681 -87 Q693 -66 693 -38 L693 96 L803 631 L840 657 ZM1217 498 L1279 498 L1279 400 Q1279 373 1291 351 Q1291 340 1279 340 Q1303 166 1303 -38 L1303 -99 Q1327 -99 1327 -112 Q1381 -87 1499 -87 Q1692 -121 1692 -161 L1692 -185 Q1692 -209 1669 -209 L1608 -209 L1534 -173 Q1522 -173 1522 -185 L1437 -173 L1389 -173 Q1236 -209 1194 -209 L1182 -185 L1182 -161 Q1182 -130 1230 -123 Q1205 -2 1205 96 L1205 413 L1217 498 ZM1778 449 L1790 425 L1790 413 Q1790 367 1620 328 Q1620 303 1595 303 L1559 303 Q1559 316 1547 340 Q1547 419 1778 449 Z" /><glyph glyph-name="uni5F97" unicode="&#x5f97;" d="M1059 1454 L1073 1454 Q1099 1454 1121 1370 L1133 1370 Q1362 1442 1486 1442 L1511 1442 Q1572 1425 1572 1285 L1572 1224 Q1535 834 1462 834 L1438 834 Q1389 857 1389 906 Q1373 894 1206 869 L1133 906 L1133 894 L1145 845 Q1121 772 1097 772 L1085 772 Q1067 772 1047 809 L1047 1394 L1059 1454 ZM1121 1321 L1133 1199 L1133 1113 Q1329 1186 1462 1186 L1474 1186 L1486 1272 L1486 1394 L1474 1394 Q1450 1394 1121 1321 ZM768 1309 L828 1309 L828 1296 Q649 1032 474 724 L451 711 L414 711 Q396 711 377 748 L377 772 Q442 986 768 1309 ZM1169 1077 L1133 1077 L1133 919 Q1438 948 1438 992 Q1462 1096 1462 1125 L1451 1125 Q1209 1077 1169 1077 ZM828 1015 L840 1015 L840 1004 Q840 956 439 284 L377 284 Q347 284 341 333 Q502 617 780 980 L828 1015 ZM1632 784 L1670 784 L1670 772 Q1670 747 1511 686 L1511 675 Q1530 578 1548 578 Q1731 601 1742 601 L1755 578 Q1755 545 1560 516 Q1584 160 1584 -227 L1584 -312 Q1584 -398 1486 -398 Q1378 -373 1279 -252 L1279 -240 Q1371 -301 1414 -300 L1451 -301 L1451 -288 Q1451 -134 1462 480 Q1088 371 950 345 Q927 358 914 358 L914 394 Q1008 394 1462 552 L1451 578 L1451 662 Q1207 626 1195 626 Q1146 638 1109 638 L1109 675 Q1128 675 1157 699 L1157 675 Q1244 675 1632 784 ZM682 662 L718 663 Q756 662 768 419 Q756 25 756 -203 Q737 -252 718 -251 L670 -252 Q652 -252 633 -216 Q633 -33 682 662 ZM1279 102 L1328 90 Q1328 36 1145 -8 L1145 -45 Q1113 -45 1097 42 Q1174 102 1279 102 Z" /><glyph glyph-name="uni5FC6" unicode="&#x5fc6;" d="M688 1429 Q736 1411 736 1393 Q736 900 688 504 Q752 492 761 492 L786 504 Q806 493 846 492 L846 468 Q846 438 700 395 L688 333 L688 200 Q688 158 676 139 L688 65 L688 -190 Q688 -218 700 -239 Q685 -373 652 -373 L628 -373 Q610 -372 579 -312 L590 -227 Q590 -187 579 -166 Q590 -33 590 65 L590 321 Q481 345 481 382 L481 407 Q488 448 602 492 Q640 925 640 1332 L640 1381 Q640 1400 688 1429 ZM1516 1052 Q1638 1011 1638 931 Q1638 861 1516 601 Q1516 576 1455 492 Q1200 62 1200 29 Q1239 4 1272 6 L1406 4 Q1545 6 1735 29 L1735 163 Q1735 175 1747 176 L1735 200 L1747 262 L1785 261 Q1820 261 1857 -44 L1857 -56 Q1803 -81 1601 -93 Q1601 -104 1589 -103 Q1577 -104 1553 -93 L1296 -117 L1296 -104 Q1284 -104 1284 -117 Q1077 -86 1077 -8 Q1090 56 1212 273 Q1358 460 1516 833 Q1541 882 1541 917 Q1495 943 1443 943 L1406 943 Q1234 905 1114 906 Q1074 931 1041 931 L1041 979 Q1046 1003 1065 1003 L1090 1003 Q1196 1003 1516 1052 ZM347 955 L371 955 Q408 943 408 882 Q408 642 323 235 L262 223 L249 223 L237 273 Q262 486 298 601 L285 626 Q295 675 311 674 Q311 686 298 686 Q323 955 347 955 Z" /><glyph glyph-name="uni5FD8" unicode="&#x5fd8;" d="M944 1430 L955 1431 Q1001 1430 1199 1321 L1199 1272 Q1199 1247 1175 1249 L1151 1247 Q934 1335 918 1394 L918 1406 Q922 1430 944 1430 ZM1431 1260 Q1431 1235 1467 1235 L1467 1211 Q1408 1186 1211 1163 Q894 1098 894 1004 Q866 1004 834 724 Q834 645 931 601 L1004 601 L1309 662 Q1309 675 1345 675 Q1369 671 1369 650 L1369 626 L1296 626 Q1120 504 967 504 L894 504 Q846 524 760 650 L760 675 Q760 686 772 686 L760 711 L760 760 Q760 858 808 1027 L808 1041 Q768 1041 517 943 L455 931 Q432 943 419 943 L419 979 Q419 1004 944 1163 Q1247 1260 1431 1260 ZM1492 347 L1540 345 Q1581 345 1626 163 Q1674 108 1674 53 L1650 42 L1626 41 Q1560 58 1479 297 L1492 347 ZM614 333 L662 309 Q650 165 650 102 L650 65 Q650 -187 700 -214 L700 -251 Q700 -268 662 -288 L626 -288 Q586 -288 565 -142 L565 53 Q565 305 614 333 ZM1199 235 L1211 235 Q1257 235 1321 29 Q1349 29 1357 -33 Q1318 -56 1284 -56 Q1175 112 1163 199 Q1163 217 1199 235 ZM931 163 Q949 163 1004 -118 Q1102 -276 1235 -276 L1273 -276 Q1454 -276 1454 -142 L1454 -118 L1479 -118 Q1496 -119 1529 -178 L1529 -227 Q1446 -374 1235 -374 Q882 -301 882 65 Q906 163 931 163 Z" /><glyph glyph-name="uni60C5" unicode="&#x60c5;" d="M1358 1533 L1395 1535 L1406 1472 L1406 1351 L1492 1364 Q1541 1344 1541 1327 L1541 1289 Q1395 1275 1395 1242 L1395 1168 L1504 1180 L1554 1168 L1554 1132 Q1554 1102 1395 1071 L1395 998 Q1631 1070 1688 1070 Q1711 1058 1724 1058 L1724 1022 Q1724 985 1395 900 Q1385 790 1334 791 Q1285 802 1285 864 Q1099 814 1017 815 L980 814 Q918 814 907 851 L907 864 Q907 900 1005 900 L1005 887 L1285 960 L1285 1045 Q1221 1022 1127 1010 Q1077 1027 1077 1045 L1077 1058 Q1077 1082 1297 1143 L1297 1253 Q1281 1254 1163 1229 Q1103 1244 1103 1265 L1103 1278 Q1103 1297 1321 1351 Q1321 1434 1358 1533 ZM737 1387 L786 1387 Q786 1363 798 1363 L786 1301 L786 693 L798 693 Q812 693 919 705 Q943 693 956 693 L956 631 Q872 607 810 607 L786 607 Q773 120 773 -124 L773 -136 Q773 -154 737 -174 L712 -174 Q671 -174 663 83 Q688 83 688 108 L688 583 Q578 583 578 547 L566 547 Q542 548 542 571 Q542 649 700 681 L700 1168 Q700 1388 737 1387 ZM504 972 L517 972 Q546 972 554 887 L504 595 L517 570 Q476 351 432 351 L419 351 Q371 359 371 437 Q451 972 504 972 ZM1236 754 Q1257 754 1273 693 L1261 619 L1261 558 L1273 558 Q1452 668 1578 668 Q1650 669 1650 35 Q1662 34 1662 -197 Q1662 -305 1602 -332 L1590 -332 Q1499 -332 1406 -112 L1406 -88 L1554 -245 L1565 -246 L1565 95 Q1363 34 1334 35 L1297 34 L1248 70 L1248 -429 Q1248 -448 1199 -477 L1175 -477 Q1127 -458 1127 -393 L1127 -332 Q1127 551 1213 754 L1236 754 ZM1261 449 L1261 387 Q1468 461 1516 461 Q1540 449 1554 450 L1554 535 L1541 595 Q1261 485 1261 449 ZM1248 218 L1248 108 L1261 108 Q1261 152 1516 205 L1565 205 L1554 328 L1554 364 Q1469 363 1261 266 Q1248 244 1248 218 Z" /><glyph glyph-name="uni60F3" unicode="&#x60f3;" d="M773 1491 L809 1491 L834 1344 Q821 1239 821 1162 L821 1101 Q956 1128 956 1162 L1078 1163 L1078 1126 Q809 1055 809 1027 L809 1015 Q809 966 821 966 L809 881 L809 711 L1090 540 Q1138 486 1138 479 L1138 455 Q1138 430 1114 430 Q1067 430 882 601 L821 637 L821 626 Q834 194 834 125 L809 113 L761 114 Q724 125 724 187 Q724 354 711 626 Q724 647 724 674 L711 674 Q642 580 505 113 L480 101 L455 101 Q438 101 420 139 L420 150 Q420 337 724 931 L724 1027 Q488 967 358 966 Q335 979 322 979 L322 1003 L334 1003 Q411 1003 737 1076 L773 1491 ZM1212 1234 Q1238 1234 1248 1101 Q1357 1186 1443 1186 L1467 1186 Q1613 1186 1613 735 L1613 686 Q1613 199 1541 199 L1505 199 Q1472 199 1455 284 L1443 284 Q1294 235 1260 235 L1224 235 L1224 174 L1187 174 Q1164 174 1164 199 L1164 540 Q1164 601 1176 723 Q1150 723 1150 747 Q1187 810 1187 869 L1187 931 L1176 931 L1176 869 Q1150 869 1150 893 L1150 943 Q1212 1089 1212 1234 ZM1236 821 L1248 821 Q1400 881 1492 881 L1516 881 Q1505 1125 1467 1125 L1443 1125 Q1248 1071 1248 979 Q1236 876 1236 821 ZM1236 760 L1236 614 L1248 589 Q1236 590 1236 578 L1248 576 Q1413 649 1505 649 L1505 735 L1516 796 L1492 796 L1505 821 L1505 833 Q1458 833 1236 760 ZM1224 504 L1224 320 L1260 345 L1260 332 L1236 297 L1236 285 L1248 284 Q1359 312 1492 382 L1492 601 Q1224 540 1224 504 ZM651 89 L675 89 Q651 42 651 -45 L651 -301 L663 -362 L688 -362 Q785 -287 785 -240 L797 -240 L797 -265 Q737 -389 699 -398 L651 -398 Q603 -381 603 -288 Q603 -41 651 89 ZM944 53 Q985 53 1054 -240 Q1146 -362 1272 -362 Q1423 -362 1455 -228 L1455 -216 Q1386 -93 1297 -95 Q1191 -95 1138 -9 L1138 29 L1164 29 Q1297 -21 1309 -21 L1419 -21 Q1639 53 1675 53 Q1772 7 1772 -69 Q1772 -106 1723 -106 Q1663 -92 1663 -9 L1651 -9 Q1441 -95 1382 -95 L1382 -106 Q1541 -186 1541 -288 Q1467 -434 1272 -434 Q1030 -434 968 -191 Q968 29 919 29 Q923 53 944 53 Z" /><glyph glyph-name="uni610F" unicode="&#x610f;" d="M905 1685 Q988 1685 1158 1551 L1158 1537 Q1158 1507 1129 1507 L1085 1507 Q876 1638 876 1656 Q881 1685 905 1685 ZM1322 1507 Q1351 1503 1351 1477 Q1351 1432 1173 1418 Q1188 1269 1188 1195 Q1173 1151 1173 1107 Q1608 1166 1692 1166 L1707 1136 L1707 1121 Q1707 1080 816 988 L816 794 Q967 883 1217 883 L1381 883 Q1470 837 1470 721 L1470 587 Q1470 241 1322 171 L1217 200 L1217 231 Q1322 231 1322 380 Q1173 305 1024 305 Q891 314 891 350 Q895 380 921 380 L1040 380 Q1178 380 1351 469 Q1366 548 1366 602 L1366 721 Q1366 735 1381 735 Q1366 759 1366 810 L1158 810 Q970 810 816 721 L832 616 L832 542 L1291 661 L1307 631 L1307 616 Q1307 557 832 453 Q832 349 861 127 L816 97 L802 97 Q743 97 743 305 L743 794 L758 972 Q360 944 253 944 L253 957 Q253 997 847 1063 L847 1121 Q847 1295 876 1359 Q675 1344 579 1344 L520 1344 Q491 1344 491 1374 L491 1388 L1322 1507 ZM921 1344 L921 1076 L994 1076 Q1108 1076 1129 1225 L1129 1374 L1113 1403 Q921 1388 921 1344 ZM639 231 L683 231 L683 216 Q697 -113 697 -141 L713 -141 L713 -111 L743 -111 Q704 -289 668 -289 L653 -289 Q624 -289 624 -244 L639 231 ZM1796 171 L1841 81 Q1841 -52 1663 -52 Q1707 23 1707 97 Q1517 42 1454 -37 Q1618 -161 1618 -304 L1618 -319 Q1565 -438 1217 -438 Q891 -438 891 -214 L891 -37 L876 37 L905 52 Q925 52 994 -289 Q1052 -333 1129 -333 L1307 -333 Q1516 -333 1559 -244 Q1515 -101 1440 -67 L1426 -67 L1307 -170 L1277 -170 Q1203 -132 1203 -52 L1203 -37 Q1212 52 1247 52 Q1379 -7 1426 -7 Q1739 171 1796 171 ZM1291 -7 L1291 -37 Q1296 -67 1322 -67 Q1350 -52 1366 -52 L1366 -22 L1291 -7 Z" /><glyph glyph-name="uni6210" unicode="&#x6210;" d="M1261 1430 Q1481 1366 1481 1272 L1443 1247 L1407 1247 Q1262 1357 1187 1357 Q1187 1430 1261 1430 ZM882 1321 Q913 1321 1017 1054 Q1234 1113 1248 1113 L1261 1089 L1261 1053 Q1041 983 1041 967 Q1228 451 1371 211 Q1388 215 1541 626 L1578 662 L1626 662 L1626 601 Q1582 601 1468 125 Q1456 125 1456 101 Q1539 -46 1639 -143 L1626 -81 L1626 41 Q1643 41 1712 -214 Q1693 -264 1674 -264 L1662 -264 Q1586 -264 1419 -33 L1407 -33 Q1318 -374 1261 -374 L1237 -373 Q1187 -349 1187 -313 Q1199 -69 1199 -45 L1225 -33 Q1248 -143 1248 -155 L1261 -155 Q1309 11 1346 90 Q1151 344 956 917 L956 955 Q636 869 541 870 L541 882 Q541 931 919 1027 L919 1053 Q919 1058 870 1223 L858 1224 L858 1187 L834 1186 L834 1199 Q843 1321 882 1321 ZM493 943 L517 943 Q493 763 481 442 Q703 565 858 565 L931 565 Q992 535 992 455 Q992 213 786 -106 L737 -143 L688 -143 Q669 -143 639 -93 Q684 297 724 297 L724 53 L749 53 Q908 350 908 442 L908 468 Q908 492 870 492 Q469 409 469 297 L469 163 Q469 41 481 -203 L444 -228 L431 -228 Q383 -227 383 -80 L383 152 Q383 164 395 163 Q395 174 383 175 L395 249 Q416 943 493 943 Z" /><glyph glyph-name="uni6211" unicode="&#x6211;" d="M1553 1459 Q1713 1232 1713 1187 L1713 1175 Q1713 1157 1676 1137 L1664 1137 Q1528 1278 1528 1397 L1528 1433 Q1532 1459 1553 1459 ZM1208 1310 L1233 1310 Q1257 979 1269 916 Q1380 941 1430 941 Q1454 937 1454 916 L1454 904 Q1454 887 1281 829 Q1281 726 1380 312 Q1565 589 1651 658 L1676 658 Q1606 574 1418 189 Q1418 46 1688 -218 L1713 -69 L1738 -69 L1738 -81 Q1738 -125 1774 -304 Q1757 -353 1738 -353 L1688 -353 Q1483 -202 1343 66 Q1204 -279 1183 -279 L1146 -279 Q1128 -279 1110 -242 Q1110 -139 1307 189 L1319 189 Q1257 438 1257 521 L1245 521 Q1079 411 850 337 Q850 -403 764 -403 L727 -403 Q697 -375 604 -107 L629 -107 Q629 -146 703 -230 Q715 -166 740 288 Q696 288 432 165 L345 165 Q321 165 321 189 Q321 229 740 374 Q752 519 752 583 L752 706 Q554 645 468 645 L444 645 Q419 645 419 670 Q419 694 494 706 L494 694 Q764 771 764 793 L764 953 L776 1014 Q665 990 617 990 L580 990 Q560 990 530 1040 L530 1052 Q530 1112 1072 1212 L1084 1212 Q1102 1212 1122 1175 L1122 1125 Q1122 1085 850 1040 L850 793 L1208 891 Q1196 1014 1196 1076 Q1196 1115 1208 1310 ZM850 732 L850 424 Q1093 485 1245 559 L1208 817 Q896 732 850 732 Z" /><glyph glyph-name="uni624D" unicode="&#x624d;" d="M1187 1480 L1236 1480 L1236 1467 Q1236 1417 1224 1370 Q1243 1199 1261 1199 L1248 1137 L1248 1125 L1261 979 L1322 992 L1322 979 Q1344 992 1432 1004 L1444 979 Q1444 943 1261 906 L1261 736 Q1395 866 1432 882 L1504 882 L1504 869 Q1261 662 1261 614 L1261 601 L1273 407 Q1261 298 1261 272 Q1273 209 1273 199 Q1261 135 1261 77 Q1261 64 1273 41 Q1273 28 1261 4 L1273 -166 Q1261 -253 1261 -264 Q1273 -288 1273 -301 L1261 -326 Q1273 -346 1273 -374 L1261 -422 L1187 -422 Q1176 -354 968 -216 L798 -33 Q676 -214 676 -276 L651 -288 L627 -288 Q599 -288 590 -228 Q603 -227 663 -81 L736 15 L724 41 L724 65 Q819 65 907 261 Q918 261 1187 638 L1187 846 Q1187 906 1163 906 Q739 834 700 834 L676 834 Q658 834 638 870 Q699 904 1187 979 L1187 992 Q1187 1051 1151 1406 Q1163 1480 1187 1480 ZM1175 505 L821 15 Q955 -117 1175 -275 L1199 -276 L1199 480 Q1199 504 1175 505 Z" /><glyph glyph-name="uni62B1" unicode="&#x62b1;" d="M1145 1363 L1194 1363 L1194 1327 Q1147 1327 1035 864 L1048 864 Q1176 936 1450 936 Q1499 936 1523 888 L1523 839 Q1523 772 1389 645 L1474 658 L1523 657 Q1540 657 1560 619 L1560 583 Q1484 377 1304 278 L1230 278 Q1206 278 1206 315 L1194 315 L1182 193 L1182 23 Q1182 -73 1254 -111 L1571 -111 Q1767 -112 1767 -2 Q1791 174 1803 205 Q1791 228 1791 255 L1791 267 L1827 266 L1889 -51 Q1889 -257 1511 -257 L1376 -257 Q1084 -236 1084 -63 L1072 -14 Q1096 264 1145 486 L1072 486 L1072 535 L1389 755 Q1450 816 1450 864 Q1010 864 1010 755 Q987 696 950 535 L950 521 L962 521 L962 547 L975 547 L975 510 Q946 267 877 266 Q817 286 817 352 Q830 675 1084 1302 L1145 1363 ZM583 1278 L609 1278 Q609 1238 621 1218 Q609 1084 609 986 L609 888 Q738 925 828 925 L840 900 L840 888 Q840 851 609 815 L609 510 Q770 572 791 571 L803 571 L803 559 Q787 559 609 413 L633 -283 L597 -306 L583 -306 Q539 -268 438 -2 Q450 -2 523 -87 L523 340 L511 340 L280 169 L328 120 L316 120 Q206 132 206 169 L206 193 Q206 207 535 461 L535 790 L292 741 L280 766 Q284 812 535 876 L535 900 Q535 1278 583 1278 ZM1218 521 L1218 510 Q1218 460 1206 376 L1242 315 Q1397 416 1485 583 L1474 584 Q1394 574 1218 521 Z" /><glyph glyph-name="uni62D9" unicode="&#x62d9;" d="M601 1382 L614 1382 Q663 1382 675 931 L675 869 Q719 894 772 894 L785 869 L785 857 Q785 836 675 796 L687 736 L687 540 Q799 614 895 650 L895 638 L687 430 Q699 -2 699 -252 L699 -275 Q694 -301 639 -326 Q590 -326 529 -130 L553 -130 Q553 -178 601 -203 L601 345 Q445 223 395 223 L383 224 Q358 223 358 249 L358 260 Q587 446 601 480 L601 772 Q424 724 334 711 Q304 724 212 736 L212 772 L224 772 Q389 772 601 845 L601 1382 ZM1334 1296 L1357 1296 Q1395 1297 1407 784 Q1429 796 1529 809 L1553 798 Q1577 809 1590 809 L1590 796 Q1569 754 1407 711 L1407 3 Q1568 50 1711 78 Q1711 90 1723 89 L1736 89 Q1726 45 1455 -45 Q1321 -130 1187 -130 L1090 -130 Q968 -113 968 -20 Q992 382 1078 383 L1126 382 L1126 358 Q1054 358 1054 151 L1054 -57 L1114 -69 L1164 -69 Q1225 -69 1309 -45 L1309 662 L1297 662 Q1170 589 1102 589 L1054 589 Q1035 589 1016 639 L1066 1004 L1114 1004 L1114 906 Q1114 827 1102 662 Q1124 662 1309 748 Q1322 1010 1322 1137 L1322 1235 L1334 1296 ZM1626 1053 L1651 1053 Q1711 1054 1711 579 Q1672 552 1639 552 Q1602 597 1602 662 L1613 662 L1613 931 L1626 1053 ZM1784 345 L1809 345 Q1882 345 1882 -178 L1882 -203 Q1870 -240 1809 -240 Q1761 -228 1761 -167 L1761 -118 Q1761 -29 1749 15 Q1761 96 1761 174 L1761 321 Q1764 345 1784 345 Z" /><glyph glyph-name="uni62E5" unicode="&#x62e5;" d="M693 1460 Q730 1419 741 1351 Q741 1339 730 1339 L741 1253 L741 936 L755 936 L779 949 Q791 948 791 936 L851 948 L889 948 Q905 948 925 912 Q925 880 839 864 L815 876 Q741 860 741 766 L741 473 Q786 498 839 498 L851 498 L851 473 Q730 398 730 376 L730 352 L741 266 L730 266 L741 242 L741 156 L730 84 L741 59 Q730 -65 730 -135 L730 -244 Q730 -272 718 -294 Q730 -315 730 -342 L730 -354 Q706 -403 658 -403 L645 -379 L645 364 L620 365 L414 266 Q389 266 376 194 Q301 194 291 254 Q291 331 584 425 L645 438 L645 827 Q582 827 267 717 L243 755 L243 778 Q266 811 658 924 L645 1046 L645 1058 Q645 1086 658 1107 Q645 1129 645 1155 L645 1180 Q645 1192 658 1192 L645 1217 L645 1375 Q645 1441 693 1460 ZM1132 1241 L1168 1241 L1168 1180 Q1168 1168 1156 1168 Q1156 1155 1168 1155 L1156 1095 L1156 1034 L1168 1034 L1595 1168 L1717 1180 Q1809 1147 1850 1022 L1850 986 Q1850 803 1838 486 L1826 462 Q1826 451 1838 450 L1826 365 L1826 243 Q1826 216 1814 194 Q1826 171 1826 157 L1814 96 Q1814 84 1826 85 L1814 23 L1814 -209 L1826 -354 Q1782 -389 1740 -390 L1728 -390 Q1595 -167 1595 -111 L1595 -99 Q1639 -99 1705 -184 L1728 -184 L1728 -51 Q1728 20 1740 145 L1728 169 L1740 242 L1740 340 Q1615 257 1509 219 Q1498 133 1485 133 L1498 47 L1498 -75 Q1498 -102 1485 -123 Q1498 -144 1498 -172 L1498 -209 Q1466 -282 1400 -282 L1375 -232 Q1400 -111 1400 -13 L1400 84 L1388 169 L1327 169 Q1327 138 1156 73 Q1156 -23 1193 -244 L1156 -269 L1144 -269 Q1104 -231 1083 -232 Q1083 -172 1058 59 L1071 59 L1058 84 L1058 803 Q1067 1241 1132 1241 ZM1144 596 Q1144 569 1156 547 Q1144 526 1144 498 Q1147 473 1168 473 Q1274 530 1375 559 L1375 571 Q1375 614 1351 889 L1375 900 L1437 900 Q1437 887 1449 864 Q1449 851 1437 851 Q1473 657 1473 583 Q1494 596 1705 631 Q1728 619 1740 619 L1740 583 Q1573 531 1485 473 L1485 328 L1498 303 Q1753 385 1753 473 L1753 486 Q1765 857 1765 961 Q1745 1095 1655 1095 Q1382 1034 1242 948 Q1144 948 1144 669 L1144 596 ZM1144 279 L1144 254 L1156 194 L1168 194 Q1203 194 1388 254 L1388 425 Q1388 450 1363 450 Q1242 413 1242 388 Q1242 356 1156 328 Q1144 306 1144 279 Z" /><glyph glyph-name="uni6392" unicode="&#x6392;" d="M725 1497 Q798 1469 798 1449 Q725 1388 725 1339 L725 1302 Q700 1007 700 975 L700 913 L712 912 Q859 949 859 1010 L871 1010 L945 961 L945 924 Q945 909 700 816 Q700 803 688 778 Q688 766 700 767 L688 680 L688 437 Q799 473 821 473 Q846 461 859 462 Q965 559 1138 559 L1138 693 Q1138 711 1005 741 Q981 729 969 729 Q936 729 907 790 Q919 838 980 838 Q1116 803 1151 803 Q1151 816 1163 838 Q1163 851 1151 851 Q1163 1071 1200 1071 L1224 1071 L1261 1046 L1248 1022 Q1248 881 1213 437 Q1236 397 1236 376 Q1200 376 1188 156 Q1188 144 1200 144 L1176 -49 Q1188 -70 1188 -112 Q1145 -124 1138 -124 Q1103 -115 1090 -75 Q1103 84 1103 182 L1103 218 Q1081 218 907 120 L883 120 L871 144 L871 193 Q1115 310 1115 388 L1115 449 L1090 461 L1053 461 Q1019 461 871 413 Q871 437 847 437 L821 437 Q821 403 725 376 Q688 348 688 340 L688 230 Q688 202 676 182 L688 156 Q688 143 676 120 Q676 96 688 96 Q668 -429 615 -429 L602 -429 Q554 -403 554 -367 Q590 -174 590 254 Q602 278 602 290 L578 303 Q382 230 346 230 L334 290 L334 303 Q338 322 578 388 L602 425 L602 645 L590 790 L225 681 L213 705 L213 717 Q213 757 602 876 Q631 1497 712 1497 L725 1497 ZM1541 1449 L1590 1423 Q1590 1410 1578 1388 Q1565 1063 1565 876 L1553 827 Q1565 807 1565 766 L1578 766 Q1635 766 1699 778 Q1870 755 1870 717 L1870 705 Q1870 680 1847 680 L1761 680 Q1651 681 1553 657 L1553 413 L1565 413 L1737 425 Q1833 393 1833 376 Q1833 363 1773 328 L1711 340 L1663 340 Q1572 326 1565 290 L1565 144 Q1565 123 1870 84 L1882 59 L1882 46 Q1882 29 1847 11 L1663 11 Q1635 11 1613 23 Q1578 11 1578 -2 Q1578 -99 1627 -416 L1627 -441 L1565 -441 Q1468 -441 1468 510 Q1480 909 1480 1375 Q1492 1450 1541 1449 Z" /><glyph glyph-name="uni6545" unicode="&#x6545;" d="M1028 376 Q1028 253 919 -2 L931 -26 L931 -38 Q854 -130 821 -135 Q782 -115 637 -99 L637 -63 Q833 -62 833 35 L931 352 L919 352 Q580 254 540 254 L552 230 L552 218 L528 218 L528 242 L516 243 L516 -1 L528 -147 L540 -147 L540 -99 Q565 -103 565 -124 L565 -343 Q552 -343 528 -355 Q430 -355 430 -26 L430 363 Q430 529 456 631 L479 631 Q500 631 516 548 Q504 463 504 413 L504 388 L516 304 Q876 437 979 437 L1023 404 L1030 374 L1028 376 ZM1108 336 Q1108 663 1328 1266 L1351 1266 L1242 627 Q1482 738 1619 738 Q1644 728 1657 728 L1657 649 L1449 121 Q1778 -175 1778 -260 L1778 -283 Q1778 -305 1754 -305 L1693 -305 Q1669 -302 1619 -192 Q1425 9 1425 32 L1401 32 Q1310 -249 1242 -249 Q1193 -242 1193 -158 L1193 -125 Q1218 -125 1230 -191 L1242 -192 Q1363 80 1363 111 Q1259 234 1230 235 Q1230 218 1193 200 L1193 222 Q1193 239 1230 257 L1254 256 Q1313 256 1401 178 Q1607 645 1607 694 L1595 694 Q1432 680 1230 572 Q1200 290 1170 290 L1144 290 L1110 310 L1104 338 L1108 336 ZM783 1389 L814 1389 Q844 1385 844 1361 Q844 1312 783 983 Q995 1038 995 1075 Q1020 1059 1055 1059 L1055 1029 Q1055 970 769 909 Q694 442 649 442 L634 442 L634 457 Q634 503 618 562 L664 893 L649 893 Q573 864 378 864 L317 864 L317 893 Q317 917 408 954 L408 923 Q694 942 694 1014 Q694 1040 783 1389 Z" /><glyph glyph-name="uni6559" unicode="&#x6559;" d="M861 1520 Q908 1455 893 1085 L1086 1142 Q1089 1103 1120 1100 L1139 1098 Q1165 1170 1169 1227 L1188 1225 Q1227 1221 1220 1165 Q1152 990 992 757 L1011 755 Q1176 813 1222 809 Q1259 799 1256 768 Q833 661 816 493 Q773 497 751 406 L770 404 Q1083 490 1210 491 L1226 452 Q1217 367 973 177 Q1066 168 1055 56 L1245 95 Q1283 85 1279 54 Q1067 -11 1064 -37 L1042 -261 Q1031 -372 912 -436 L801 -425 Q773 -421 751 -363 L753 -345 L844 -372 L861 -374 Q980 -319 996 -163 L1007 -51 Q877 -37 680 -131 L661 -130 L665 -92 Q699 -36 996 24 L998 44 Q982 81 985 101 L927 107 L797 101 L782 140 L783 158 L1090 409 L1070 411 Q615 348 602 213 Q329 -157 260 -202 L223 -199 Q186 -196 189 -158 L193 -121 L225 7 L243 6 L295 -37 Q297 -23 536 315 Q500 318 503 354 Q619 343 792 627 L773 628 Q390 572 300 581 L244 587 L245 605 Q250 642 550 650 Q552 669 762 704 L747 744 L768 948 L749 949 Q624 924 579 928 L560 931 Q533 933 509 992 Q793 1021 799 1076 L832 1410 L822 1505 L861 1520 ZM885 992 L858 733 Q892 735 1096 1046 L1077 1048 L885 992 ZM1504 800 L1521 799 Q1558 789 1556 758 L1553 738 Q1455 205 1389 211 L1370 213 Q1332 217 1339 273 L1481 765 Q1462 767 1464 785 L1504 800 ZM1853 540 L1868 502 Q1817 469 1771 473 L1777 341 L1760 174 L1719 -46 Q1745 -49 1904 -271 L1902 -289 Q1898 -327 1860 -323 L1824 -319 L1673 -135 Q1664 -227 1525 -309 L1451 -301 Q1332 -177 1355 64 L1358 83 Q1402 154 1476 146 Q1536 141 1636 55 L1655 54 Q1716 297 1733 459 L1713 460 Q1624 432 1542 440 L1527 479 Q1772 548 1853 540 ZM1450 74 L1428 39 L1426 20 Q1411 -125 1497 -212 Q1552 -218 1606 -54 Q1611 -8 1450 74 Z" /><glyph glyph-name="uni6570" unicode="&#x6570;" d="M795 1645 Q854 1645 863 1427 L863 1236 Q1000 1331 1000 1481 L1013 1481 L1040 1441 L1040 1414 Q1040 1284 863 1168 L863 1128 Q884 1128 1164 1209 L1177 1209 Q1204 1205 1204 1181 Q1204 1137 850 1059 L850 895 Q880 872 1136 773 Q1258 667 1258 651 L1258 609 Q1258 583 1231 583 L1204 583 Q1011 790 836 814 L836 501 Q836 430 795 420 L769 420 Q741 420 741 447 L741 719 L754 856 L686 869 L673 869 Q475 619 400 420 L373 420 Q346 420 346 447 Q346 627 727 1005 L769 1005 L769 1032 Q326 936 251 936 L223 936 L223 978 Q782 1089 782 1128 L782 1563 L769 1631 L795 1645 ZM537 1441 Q581 1441 619 1155 L645 1168 L659 1168 L659 1155 Q632 1092 605 1087 L577 1087 Q543 1087 509 1427 L537 1441 ZM1448 1100 Q1463 1074 1463 1059 L1408 515 L1422 515 Q1726 637 1858 637 L1871 609 Q1871 587 1707 542 Q1666 176 1599 -98 Q1830 -239 1830 -398 L1830 -411 Q1830 -430 1789 -452 L1762 -452 Q1738 -452 1666 -288 L1572 -207 L1557 -207 Q1495 -411 1422 -411 Q1252 -411 1231 -98 L1231 -43 Q1231 -22 1286 11 L1380 11 Q1422 11 1517 -43 Q1585 174 1653 528 L1395 447 Q1380 244 1380 174 L1354 161 L1326 161 Q1299 161 1299 188 L1299 284 Q1354 997 1448 1100 ZM686 895 L686 882 Q769 890 769 978 Q738 975 686 895 ZM700 501 Q700 487 714 487 Q700 351 700 284 L700 215 Q972 215 972 323 Q972 487 1013 487 L1040 473 L1027 406 L1027 284 L1164 297 L1177 270 L1177 256 Q1177 240 1013 188 Q1013 70 931 -179 Q1139 -277 1164 -316 L1164 -356 Q1164 -384 1136 -384 Q1068 -384 891 -288 L891 -301 Q798 -520 619 -520 Q522 -520 455 -398 L455 -384 Q526 -452 577 -452 L605 -452 Q740 -452 823 -221 Q739 -221 632 37 L632 120 Q386 65 251 52 L236 79 Q238 102 632 201 Q654 495 700 501 ZM700 134 L700 92 Q700 -2 850 -125 Q880 -125 945 174 L931 174 L700 134 ZM1286 -43 L1286 -139 Q1286 -257 1380 -316 L1395 -316 Q1435 -316 1476 -125 Q1376 -43 1326 -43 L1286 -43 Z" /><glyph glyph-name="uni65BC" unicode="&#x65bc;" d="M1504 1461 Q1529 1456 1529 1437 L1529 1411 Q1529 1377 1407 1082 Q1103 221 1103 -14 L1103 -51 Q1103 -75 1078 -74 L1041 -75 Q1023 -75 1006 -26 Q1086 407 1213 741 Q1371 1189 1481 1461 L1504 1461 ZM712 1302 L750 1302 Q814 1255 896 1132 L896 1120 Q896 1102 858 1084 L847 1082 Q689 1211 689 1290 L712 1302 ZM834 900 L858 901 Q883 895 883 876 L883 851 Q810 805 810 790 Q762 701 640 290 L724 303 L786 303 Q834 279 858 231 L858 109 Q822 -91 724 -343 L664 -355 L652 -355 Q652 -342 640 -319 Q640 -284 737 -63 Q773 113 773 169 Q755 218 737 218 L689 218 Q589 218 493 -245 Q493 -357 433 -404 L407 -404 Q390 -404 371 -367 Q421 -157 652 596 Q700 722 700 779 Q636 778 371 680 L249 680 L249 693 L262 755 L323 755 Q769 900 834 900 ZM1444 729 L1468 729 Q1680 729 1846 498 L1846 425 Q1846 397 1785 388 Q1785 503 1542 645 Q1433 657 1407 669 L1334 633 L1285 631 L1285 680 Q1346 729 1444 729 ZM1371 279 L1383 279 Q1590 221 1590 108 L1590 96 L1542 96 Q1466 157 1346 205 L1346 254 Q1350 279 1371 279 ZM1371 -173 L1407 -173 Q1556 -319 1590 -319 L1590 -367 Q1590 -385 1554 -403 Q1483 -403 1358 -233 L1358 -209 Q1371 -186 1371 -173 Z" /><glyph glyph-name="uni65E0" unicode="&#x65e0;" d="M1155 1346 L1210 1346 L1210 1315 Q757 1189 614 1189 L504 1189 L504 1221 Q577 1221 1155 1346 ZM952 1159 L971 1159 L971 1128 Q883 1128 902 1053 Q885 1027 831 802 Q894 802 1283 912 L1318 912 L1318 880 Q1318 834 812 707 Q686 222 686 50 L703 50 Q667 -20 632 -249 L577 -249 Q541 -249 541 -218 L541 -155 Q541 86 722 693 Q586 661 469 661 L451 661 Q414 661 414 693 L414 723 Q451 723 451 739 L541 723 Q795 723 795 975 Q879 1256 952 1159 ZM994 551 L1011 550 Q1055 550 1120 64 L1174 33 L1210 33 Q1414 33 1680 300 L1680 268 Q1680 64 1265 -45 L1193 -45 Q1011 -45 1011 300 Q994 424 994 551 Z" /><glyph glyph-name="uni65F6" unicode="&#x65f6;" d="M1496 1362 Q1562 1362 1562 1071 L1562 1045 L1641 1045 Q1694 1019 1694 979 Q1694 924 1575 913 Q1575 792 1628 -168 Q1614 -300 1509 -300 L1482 -300 Q1328 -300 1193 -129 L1193 -115 Q1369 -181 1416 -181 L1482 -181 Q1469 501 1443 887 Q1224 834 1061 834 Q1008 855 1008 873 Q1042 909 1443 1019 L1443 1309 Q1443 1330 1496 1362 ZM441 1296 Q467 1291 467 1269 L467 1190 L480 1058 Q628 1155 810 1203 L876 1203 Q942 1203 942 953 Q929 836 929 807 Q942 718 942 662 Q903 598 903 492 L903 360 Q969 355 969 320 L969 307 Q969 288 929 267 L850 267 Q810 267 546 228 L520 267 Q810 490 810 609 Q823 683 823 715 L771 715 Q691 715 493 649 L480 649 Q480 529 533 30 L507 17 L480 17 Q401 26 401 675 L401 1151 Q401 1296 441 1296 ZM480 979 L480 728 L493 728 Q645 807 837 807 L837 821 Q850 966 850 1071 L850 1124 Q786 1124 480 979 ZM1167 675 L1206 675 Q1377 535 1377 439 Q1359 373 1284 373 Q1235 373 1140 636 L1140 649 Q1144 675 1167 675 ZM757 439 L757 426 Q761 399 784 399 L797 399 L797 479 Q777 479 757 439 ZM652 333 L665 333 Q738 347 771 347 Q744 389 744 413 L731 413 Q712 413 652 333 Z" /><glyph glyph-name="uni661F" unicode="&#x661f;" d="M642 1491 Q647 1464 671 1464 L698 898 Q1105 1056 1257 1056 Q1285 1052 1285 1030 Q1261 982 713 832 L769 516 L713 476 L698 476 Q601 476 601 1187 L601 1319 Q601 1491 642 1491 ZM1313 1398 Q1434 1398 1452 1227 L1452 1096 Q1419 631 1313 568 Q1236 568 1201 634 L1201 660 L1228 647 L1270 647 Q1270 686 1299 739 L1285 739 Q918 620 865 620 L852 620 Q825 620 825 647 L825 660 Q825 695 1228 792 L1285 792 L1313 779 Q1368 1016 1368 1213 Q1368 1311 1326 1319 L1257 1319 Q1110 1319 754 1200 L740 1200 L740 1227 Q1039 1398 1313 1398 ZM1090 529 L1131 529 Q1148 405 1159 371 Q1222 397 1341 397 L1354 371 L1354 358 Q1354 314 1159 292 L1159 107 Q1365 160 1424 160 L1437 133 L1437 120 Q1437 84 1159 28 L1159 -249 Q1343 -222 1411 -222 Q1564 -222 1564 -328 L1564 -341 Q1564 -361 1521 -381 L1508 -381 L1437 -367 L1437 -354 L1466 -315 L1285 -315 Q1156 -315 1117 -367 L1103 -367 Q1076 -367 1076 -341 Q799 -407 698 -407 L559 -394 L559 -367 Q563 -341 587 -341 L642 -341 Q757 -341 1061 -262 L1061 1 L1047 1 Q816 -52 740 -52 L713 -12 Q713 11 782 28 L810 14 Q963 67 1061 80 L1061 265 L1047 265 Q1012 265 713 186 L713 199 Q713 252 1061 358 Q1072 386 1090 529 ZM713 397 Q740 393 740 371 Q642 40 615 -117 L587 -130 L559 -130 Q531 -130 531 -103 L531 -90 Q531 120 685 397 L713 397 Z" /><glyph glyph-name="uni662F" unicode="&#x662f;" d="M878 1582 Q918 1502 918 1106 Q1193 1174 1258 1174 Q1286 1169 1286 1146 L1286 1120 Q1258 1065 1204 1065 L1204 1079 Q1177 1065 933 1010 L933 821 L973 847 L986 847 Q986 821 1000 821 Q1123 860 1162 860 L1204 860 Q1232 857 1232 834 Q1176 807 1149 807 Q1151 784 1272 712 L1286 712 Q1367 1275 1367 1486 L1367 1499 L1354 1499 Q1023 1392 960 1392 L960 1405 Q1264 1569 1367 1569 L1380 1569 Q1435 1549 1435 1459 Q1400 616 1326 616 L1286 616 Q1136 750 1136 793 Q1121 793 986 766 L933 766 L946 697 L946 658 Q946 638 905 616 L850 616 Q824 616 810 697 Q826 1582 878 1582 ZM1666 590 L1679 562 L1679 548 Q1679 475 1136 453 L1136 440 Q1217 440 1217 331 Q1217 209 1204 -145 Q1178 -207 1149 -213 L1123 -213 Q1088 -213 1082 -158 L1123 440 L1110 440 L498 372 L429 372 Q410 372 388 413 L416 426 Q430 426 456 413 Q918 508 1666 590 ZM769 222 L783 222 Q805 222 850 127 Q837 -130 837 -308 Q872 -395 905 -403 Q1184 -403 1707 -227 L1707 -240 Q1441 -526 1055 -526 Q755 -526 755 -308 L755 -253 Q755 -140 783 154 L769 222 ZM1598 222 L1626 182 L1626 154 Q1626 134 1585 113 L1544 113 Q1458 113 1340 99 Q1286 113 1245 113 L1245 154 L1598 222 Z" /><glyph glyph-name="uni665A" unicode="&#x665a;" d="M1138 1520 L1175 1521 L1175 1509 Q1114 1385 847 681 L822 669 L761 682 L761 718 Q761 816 1054 1411 Q1119 1519 1138 1520 ZM1431 1253 L1467 1253 Q1488 1253 1504 1180 Q1416 915 1224 778 L1224 766 Q1378 790 1443 790 Q1529 790 1529 705 L1529 657 Q1529 619 1479 547 Q1491 525 1491 512 L1187 352 Q992 -433 992 -451 L968 -464 L944 -464 Q919 -463 919 -438 L919 -403 Q919 -260 1102 328 L1089 328 Q1000 328 992 266 L968 254 L956 254 Q938 254 919 305 Q932 557 932 717 Q932 838 968 838 L992 838 Q992 826 980 803 Q992 757 992 693 Q1130 726 1236 839 Q1443 1120 1443 1217 Q1301 1203 1066 1143 L1066 1168 Q1302 1253 1431 1253 ZM432 1217 L456 1203 Q432 1062 432 961 Q555 1070 651 1070 L688 1070 Q749 1070 749 11 Q737 -29 701 -37 Q591 14 591 85 Q644 35 651 35 L651 133 Q591 108 591 85 L566 96 L456 96 Q432 96 432 121 L432 133 Q432 152 482 182 L494 182 L494 169 L482 145 L505 145 L651 157 L651 547 Q456 498 456 438 L456 425 L396 462 L396 -196 Q396 -220 372 -220 L347 -219 Q310 -213 310 -134 Q335 1217 432 1217 ZM408 510 Q396 510 396 498 L408 498 Q505 596 663 596 L663 1034 Q420 1001 420 790 Q408 684 408 510 ZM1260 717 Q1247 685 1199 425 L1212 425 Q1467 539 1467 705 L1467 717 Q1467 741 1443 741 Q1260 733 1260 717 ZM992 669 L1005 583 L1005 364 L1016 365 Q1138 364 1138 498 L1212 717 Q1032 669 992 669 ZM1333 293 L1357 279 Q1357 -366 1491 -365 L1504 -366 Q1658 -224 1759 -51 L1784 -51 L1784 -62 Q1649 -439 1504 -439 L1479 -439 Q1335 -439 1309 -147 L1309 266 Q1313 292 1333 293 Z" /><glyph glyph-name="uni66FE" unicode="&#x66fe;" d="M828 1485 L876 1485 Q925 1106 961 1096 Q961 1084 974 1084 L1009 1084 L1009 1071 Q1145 1071 1145 1168 Q1145 1228 1217 1485 L1266 1485 Q1266 1459 1278 1437 Q1243 1214 1217 1120 Q1344 1156 1583 1181 Q1705 1165 1705 1071 L1705 1046 Q1705 906 1462 645 L1388 645 L1388 669 L1413 706 L1401 706 Q1071 624 1071 571 L998 584 Q773 510 730 510 L693 510 L693 535 Q695 552 1009 669 L1009 729 Q1009 815 998 999 L986 998 Q554 920 486 888 Q499 865 499 851 L474 851 L474 876 L462 877 L462 853 Q462 689 522 352 L511 352 L486 340 Q389 381 389 815 Q389 871 401 1096 L425 1096 Q462 1097 462 926 Q531 961 888 1046 Q816 1168 816 1340 Q816 1359 828 1485 ZM1047 1023 Q1071 849 1071 779 L1071 717 Q1106 717 1352 998 Q1376 998 1376 961 Q1344 886 1169 706 Q1335 767 1388 767 L1401 767 Q1424 767 1424 729 L1436 729 Q1580 942 1620 1071 L1620 1120 Q1356 1098 1047 1023 ZM754 913 Q773 913 949 741 L961 741 L961 717 L949 717 Q718 759 718 888 Q718 913 754 913 ZM1376 498 Q1486 498 1486 -245 L1486 -355 Q1486 -418 1449 -429 L1401 -429 Q1365 -414 1266 -173 Q1093 -233 1084 -233 L1059 -233 Q1035 -233 1035 -209 L1035 -196 Q1035 -161 1205 -111 L1181 -75 L1193 -75 Q1217 -78 1217 -99 L1303 -87 L1364 -87 L1364 121 Q1316 121 1047 11 L1047 -2 Q1119 -9 1119 -37 Q1028 -14 1009 -14 Q1023 -196 1023 -282 L1023 -367 Q1023 -385 986 -404 L974 -404 Q888 -404 888 -294 Q888 -133 901 413 L913 473 L961 473 Q983 364 998 365 Q1238 498 1376 498 ZM998 304 Q1006 96 1023 96 Q1270 218 1364 218 L1364 315 L1352 438 Q1309 438 998 304 ZM1278 -161 Q1348 -257 1364 -257 L1364 -135 L1352 -135 Q1312 -161 1278 -161 Z" /><glyph glyph-name="uni6700" unicode="&#x6700;" d="M645 1571 L657 1571 Q698 1571 730 1364 L755 1364 Q860 1428 1303 1510 Q1401 1472 1401 1388 L1401 1364 Q1364 851 1303 851 Q1235 851 1108 925 L840 865 Q817 877 803 877 L803 888 Q803 917 1217 1023 L1242 1023 L1267 1010 L1279 1156 L1194 1144 L1194 1156 Q967 1096 755 1023 L755 1010 Q755 998 767 998 L755 974 L755 851 Q755 827 730 827 L693 827 Q676 827 657 865 L657 1023 Q657 1049 645 1071 L657 1096 L645 1120 Q657 1186 657 1230 Q657 1257 645 1278 Q645 1291 657 1315 Q645 1440 645 1510 L645 1571 ZM730 1304 Q742 1181 742 1120 L742 1084 L755 1084 Q1111 1230 1279 1230 Q1279 1218 1291 1218 Q1315 1305 1315 1425 Q1292 1437 1279 1437 Q1185 1425 730 1304 ZM1132 925 Q1176 925 1242 913 L1254 975 Q1132 953 1132 925 ZM1681 839 L1705 803 L1705 767 Q1604 767 974 657 Q986 492 986 413 L1010 400 L998 340 L998 -26 L1023 -63 L998 -99 L998 -271 Q998 -514 926 -514 Q865 -514 865 -331 Q888 -331 888 -306 L888 -161 Q515 -399 438 -429 Q414 -416 401 -416 L401 -379 Q401 -363 535 -245 L547 -245 L547 -257 L511 -319 L523 -319 Q523 -306 657 -221 Q632 -181 632 -147 Q632 154 669 583 Q374 512 328 510 L315 535 L315 548 Q517 620 681 657 Q681 706 706 706 L730 706 L730 669 Q1534 839 1681 839 ZM730 596 L730 388 Q733 364 755 364 Q898 413 913 413 L913 450 Q913 510 926 631 Q913 631 913 645 Q853 620 730 596 ZM1559 548 L1571 548 Q1591 548 1621 498 L1621 486 Q1621 347 1461 35 Q1719 -344 1754 -367 Q1779 -367 1779 -429 Q1779 -489 1705 -489 L1681 -489 Q1623 -449 1425 -75 L1413 -74 Q1257 -319 1205 -319 L1182 -319 Q1132 -319 1120 -161 L1144 -161 L1169 -245 L1182 -245 Q1269 -158 1340 11 Q1318 72 1182 156 Q1158 145 1144 144 L1144 156 Q1144 174 1182 194 L1194 194 Q1249 194 1389 96 Q1547 427 1547 486 L1535 486 Q1238 348 1217 292 L1169 292 L1169 328 Q1391 535 1559 548 ZM742 292 L742 121 Q900 169 900 194 L900 340 L742 292 ZM742 59 L742 -161 Q898 -78 900 -51 L900 108 L888 108 L742 59 Z" /><glyph glyph-name="uni6709" unicode="&#x6709;" d="M1350 1616 Q1456 1616 1627 1437 Q1627 1374 1121 1159 Q602 233 534 -291 L503 -307 L470 -307 Q445 -307 420 -258 L420 -242 Q651 491 958 1029 Q974 1029 1007 1093 L1007 1111 Q573 931 518 931 Q494 931 470 980 Q485 1045 485 1093 L518 1093 L534 1013 Q1137 1232 1137 1322 Q1268 1616 1350 1616 ZM1186 1290 L1219 1290 Q1475 1411 1561 1437 Q1453 1566 1350 1566 Q1311 1560 1186 1290 ZM1594 899 Q1675 899 1675 -79 Q1660 -389 1594 -389 L1545 -389 Q1400 -389 1333 -177 L1350 -177 Q1462 -291 1545 -291 Q1561 -130 1577 475 Q1561 688 1561 817 L1545 817 Q1299 684 1186 605 L1170 638 Q1372 845 1594 899 ZM1088 784 L1105 751 L1105 409 L1121 409 Q1270 508 1447 508 L1496 508 Q1519 508 1545 459 L1545 442 L1512 394 Q1480 409 1463 409 Q1400 409 1137 344 Q1137 361 1121 361 L1121 100 Q1377 182 1479 182 L1512 133 Q1512 100 1170 35 L1121 35 L1121 -340 Q1121 -372 1088 -372 L1072 -372 Q1039 -372 1039 -340 L1039 -161 Q1039 153 1056 768 L1088 784 Z" /><glyph glyph-name="uni670D" unicode="&#x670d;" d="M421 1357 L471 1357 L471 1146 L454 1065 L471 1066 Q454 1033 421 642 L438 642 Q616 724 697 724 L730 724 L730 1178 L715 1178 Q666 1178 519 1098 L519 1130 Q669 1211 746 1211 L779 1212 Q812 1034 812 805 L812 253 Q812 81 828 -267 L795 -284 L763 -284 Q727 -284 617 9 Q633 9 730 -104 L730 675 Q488 595 421 594 L421 464 L406 350 L454 383 L471 384 L454 350 L471 351 Q583 398 697 431 L697 383 Q697 333 486 301 L438 301 L406 318 L406 172 Q406 -78 471 -234 Q447 -300 421 -300 L389 -300 Q319 -300 308 -24 L308 253 Q308 614 421 1357 ZM1136 1276 L1168 1276 L1168 1080 Q1357 1146 1462 1146 L1542 1146 Q1575 1141 1575 1113 L1575 1065 Q1574 950 1234 513 L1168 513 Q1174 480 1201 481 Q1498 609 1575 609 Q1657 578 1657 513 Q1612 315 1510 187 L1510 172 Q1786 -114 1786 -202 L1753 -218 L1705 -218 Q1685 -218 1591 -40 L1445 107 Q1311 -56 1201 -55 L1201 -71 L1218 -154 L1153 -154 Q1136 -37 1104 58 Q1120 147 1120 187 Q1104 389 1104 399 L1120 431 Q1120 447 1104 448 L1120 529 L1120 1000 L1104 1001 Q1007 935 957 935 L957 967 Q1120 1012 1120 1113 L1136 1276 ZM1186 1048 Q1186 960 1168 740 L1186 578 Q1527 977 1527 1114 L1510 1113 Q1371 1113 1186 1048 ZM1251 464 L1251 431 Q1279 431 1462 235 L1477 235 Q1591 448 1591 529 L1591 545 L1575 578 Q1511 578 1251 464 ZM1168 431 L1168 398 Q1168 306 1186 -7 L1201 -7 Q1300 25 1397 155 L1397 172 Q1196 431 1168 431 Z" /><glyph glyph-name="uni6765" unicode="&#x6765;" d="M1036 1618 Q1061 1616 1090 1365 L1318 1385 Q1370 1366 1370 1348 L1370 1326 Q1370 1287 1080 1278 Q1090 1078 1090 987 L1090 835 Q1324 1041 1392 1151 L1392 1161 L1370 1164 L1318 1158 L1318 1179 Q1443 1199 1468 1197 L1479 1175 L1479 1153 Q1384 906 1101 769 L1090 770 L1090 673 Q1390 693 1436 725 Q1414 727 1414 748 L1414 759 L1425 759 Q1522 724 1522 694 L1522 662 Q1501 628 1166 601 Q1166 568 1090 543 L1090 392 Q1322 259 1652 -238 L1652 -313 Q1652 -330 1608 -352 L1598 -351 Q1489 -315 1489 -232 L1511 -223 Q1452 -89 1090 328 L1090 -169 Q1123 -334 1123 -357 Q1123 -406 1058 -426 Q1004 -406 1004 -345 L1004 293 L1014 420 Q790 76 658 -278 Q658 -321 614 -339 L571 -334 Q550 -332 550 -310 L550 -289 Q550 -156 1014 539 L1014 593 Q584 550 495 559 Q442 573 442 597 Q442 630 658 629 Q751 652 1014 669 L1014 724 L960 718 Q1014 755 1014 799 L1014 1264 L1004 1265 Q649 1235 604 1240 L593 1263 L593 1274 Q593 1306 1014 1361 Q1014 1410 1004 1599 L1036 1618 ZM690 1090 L702 1089 Q785 990 809 895 L820 895 L917 971 L917 961 Q866 867 852 750 L830 741 L787 746 Q741 751 669 1082 L690 1090 Z" /><glyph glyph-name="uni677F" unicode="&#x677f;" d="M761 1431 L787 1431 Q811 1431 811 1394 Q799 1308 799 1296 Q811 1274 811 1261 L799 1261 Q799 1247 811 1247 L799 1102 L799 1029 L787 1004 L811 992 Q841 992 969 1065 Q994 1062 994 1041 L994 1016 Q984 979 799 894 Q799 858 787 858 Q811 817 811 784 Q774 755 774 455 L774 443 Q778 407 969 321 L969 284 Q969 275 932 249 Q913 249 774 284 L761 261 L761 113 L749 41 Q761 20 761 -20 L761 -45 Q761 -73 749 -93 Q749 -106 761 -106 L749 -166 L749 -288 L761 -350 Q722 -374 689 -374 L664 -337 Q677 141 677 382 L677 394 Q677 407 689 407 Q689 419 677 419 Q689 523 689 578 L689 602 L677 602 Q603 424 543 237 L530 235 Q530 223 543 224 Q518 127 518 77 L470 77 Q433 90 433 151 Q433 294 664 760 L689 760 L689 834 L640 834 Q461 772 274 772 L262 796 L262 821 Q262 860 591 906 Q713 935 713 1004 Q713 1016 701 1018 L713 1077 L713 1261 Q713 1431 761 1431 ZM1555 1309 Q1579 1296 1591 1296 L1591 1273 Q1591 1244 1384 1211 Q1316 1181 1262 979 Q1262 967 1274 967 Q1226 592 1200 492 L1214 468 L1176 164 Q1188 97 1188 53 L1188 -106 Q1188 -123 1249 -154 Q1357 -89 1482 163 Q1464 229 1286 407 L1286 431 Q1289 455 1310 455 L1359 455 Q1383 450 1542 273 Q1687 559 1725 711 L1725 724 Q1725 748 1701 748 L1689 748 Q1503 699 1432 699 L1432 711 L1347 662 L1335 663 Q1310 662 1310 688 L1310 711 Q1310 758 1555 773 Q1555 794 1749 809 Q1805 785 1811 760 L1811 662 L1603 187 Q1834 -63 1834 -240 L1799 -264 L1773 -264 Q1755 -261 1652 -20 Q1632 -20 1542 77 L1517 77 Q1517 43 1396 -130 Q1339 -228 1226 -228 Q1226 -313 1152 -313 L1152 -301 Q1107 -301 1090 125 Q1176 1015 1226 1151 L1214 1151 L1128 1125 Q1110 1125 1090 1163 Q1148 1273 1555 1309 Z" /><glyph glyph-name="uni67D4" unicode="&#x67d4;" d="M1153 1394 L1195 1389 Q1364 1346 1364 1218 Q1364 1084 1083 1063 L1083 1035 L1097 1033 Q1472 1067 1577 1056 Q1604 1048 1604 1024 L1604 1010 Q1604 834 1153 759 L1153 788 Q1290 807 1492 979 L1478 981 Q1125 960 1125 917 L1097 878 L1097 497 Q1097 418 1027 406 Q962 439 956 469 L956 539 L984 537 L984 508 L1012 506 L1012 829 Q998 832 547 411 Q561 383 561 367 Q538 306 477 277 L421 284 Q392 286 392 315 L392 356 Q392 477 971 919 L956 921 Q592 887 519 893 L491 897 Q462 900 462 927 Q481 963 998 1014 L998 1029 L928 1120 L928 1148 Q932 1177 956 1174 Q956 1146 998 1142 Q1185 1235 1209 1234 L1209 1262 L1125 1284 Q825 1313 632 1178 L603 1181 Q575 1184 575 1212 L575 1255 Q731 1437 1153 1394 ZM1054 361 L1069 359 Q1111 354 1111 284 Q1406 297 1492 288 L1521 244 Q1521 216 1111 200 L1111 143 L1125 142 L1224 146 Q1406 128 1703 -423 L1703 -494 Q1703 -516 1647 -544 L1633 -543 Q1613 -540 1463 -217 Q1261 73 1139 85 L1111 87 L1111 -393 Q1111 -465 1069 -473 L1041 -470 Q998 -465 984 -323 Q1012 -140 1012 41 L1012 139 Q850 -64 659 -348 L618 -343 Q597 -341 575 -283 Q690 -68 900 165 L900 178 Q830 186 645 134 L632 163 L632 177 Q698 232 1012 279 Q1012 364 1054 361 Z" /></font>
</defs>
</svg>
